<?xml version="1.0" encoding="UTF-8"?>
<svg id="content" xmlns="http://www.w3.org/2000/svg" xmlns:xlink="http://www.w3.org/1999/xlink" viewBox="0 0 278.81 271.15">
  <defs>
    <style>
      .cls-1 {
        fill: url(#Degradado_sin_nombre_7-3);
      }

      .cls-1, .cls-2, .cls-3 {
        stroke-width: 0px;
      }

      .cls-2 {
        fill: url(#Degradado_sin_nombre_7-2);
      }

      .cls-4 {
        opacity: .8;
      }

      .cls-3 {
        fill: url(#Degradado_sin_nombre_7);
      }
    </style>
    <linearGradient id="Degradado_sin_nombre_7" data-name="Degradado sin nombre 7" x1="39.31" y1="137.85" x2="227.66" y2="137.85" gradientUnits="userSpaceOnUse">
      <stop offset="0" stop-color="#3a006a"/>
      <stop offset=".22" stop-color="#3c0c72"/>
      <stop offset=".62" stop-color="#422d87"/>
      <stop offset="1" stop-color="#4a53a0"/>
    </linearGradient>
    <linearGradient id="Degradado_sin_nombre_7-2" data-name="Degradado sin nombre 7" x1="74.74" y1="137.82" x2="192.31" y2="137.82" xlink:href="#Degradado_sin_nombre_7"/>
    <linearGradient id="Degradado_sin_nombre_7-3" data-name="Degradado sin nombre 7" x1="105.91" y1="137.84" x2="161.27" y2="137.84" xlink:href="#Degradado_sin_nombre_7"/>
  </defs>
  <g class="cls-4">
    <path class="cls-3" d="m133.53,223.6c5.82-3.85,11.38-7.63,17.08-11.2,1.37-.86,3.2-1.42,4.8-1.37,6.17.15,12.35.54,18.51.99,1.79.13,2.76-.28,3.57-1.99,2.53-5.33,5.14-10.64,8.03-15.78.99-1.77,2.66-3.47,4.43-4.46,5.06-2.84,10.29-5.4,15.54-7.87,1.8-.85,2.27-1.9,2.13-3.78-.43-5.8-.86-11.61-.93-17.43-.03-2.03.55-4.34,1.59-6.07,3.03-5.06,6.36-9.95,9.73-14.8,1.07-1.54.99-2.59-.04-4.09-3.3-4.78-6.6-9.59-9.57-14.58-1.08-1.82-1.73-4.2-1.71-6.32.06-5.99.53-11.98.93-17.98.1-1.49-.37-2.26-1.74-2.92-5.48-2.65-10.94-5.33-16.27-8.25-1.56-.86-3.04-2.33-3.9-3.89-2.89-5.24-5.59-10.6-8.15-16.02-.85-1.8-1.8-2.3-3.73-2.16-6.16.47-12.34.83-18.52.98-1.59.04-3.41-.56-4.78-1.41-5.17-3.22-10.22-6.61-15.25-10.05-1.32-.9-2.26-.87-3.57.03-4.94,3.39-9.92,6.76-15.02,9.89-1.52.93-3.53,1.55-5.29,1.52-6.08-.12-12.17-.51-18.24-.96-1.8-.13-2.79.28-3.6,1.96-2.6,5.4-5.24,10.78-8.13,16.03-.9,1.63-2.42,3.21-4.04,4.11-5.24,2.9-10.63,5.53-16.03,8.12-1.46.7-1.98,1.5-1.87,3.11.41,5.9.83,11.8.91,17.71.03,2.04-.48,4.35-1.51,6.08-3.06,5.15-6.43,10.13-9.84,15.06-1.08,1.55-1,2.6.04,4.1,3.35,4.87,6.69,9.75,9.7,14.83,1.07,1.82,1.63,4.21,1.61,6.34-.06,5.81-.49,11.63-.89,17.43-.11,1.68.33,2.59,1.93,3.35,5.33,2.52,10.64,5.11,15.8,7.96,1.7.94,3.32,2.55,4.27,4.25,2.91,5.23,5.5,10.64,8.13,16.03.73,1.49,1.58,2.07,3.34,1.93,6.16-.47,12.34-.85,18.52-.99,1.68-.04,3.6.55,5.04,1.44,5.7,3.56,11.25,7.35,17,11.14m33.83-4.2c-3.63-.2-7.26-.49-10.9-.55-.99-.01-2.11.46-2.98,1.02-5.58,3.6-11.15,7.2-16.61,10.97-2.36,1.63-4.34,1.67-6.71.04-5.47-3.75-11.04-7.36-16.62-10.96-.87-.56-1.98-1.11-2.95-1.07-6.82.28-13.63.61-20.43,1.15-2.96.24-4.82-.74-6.11-3.39-2.86-5.88-5.79-11.73-8.85-17.51-.62-1.17-1.77-2.29-2.94-2.92-5.77-3.07-11.61-6.04-17.49-8.89-2.54-1.24-3.65-2.97-3.45-5.81.46-6.63.83-13.26,1.06-19.89.04-1.33-.41-2.88-1.13-4.01-3.49-5.53-7.09-11-10.76-16.42-1.59-2.35-1.58-4.42.01-6.76,3.69-5.4,7.31-10.86,10.81-16.39.72-1.13,1.15-2.68,1.11-4.01-.22-6.45-.56-12.91-1.05-19.35-.24-3.15.82-5.1,3.72-6.48,5.83-2.76,11.56-5.73,17.25-8.76,1.18-.63,2.31-1.75,2.93-2.93,3.02-5.7,5.84-11.5,8.75-17.26,1.71-3.38,2.72-3.83,6.47-3.59,6.71.44,13.44.83,20.16,1.1.97.04,2.08-.51,2.95-1.07,5.34-3.45,10.73-6.86,15.91-10.54,2.91-2.07,5.28-1.95,8.13.07,5.12,3.62,10.38,7.04,15.7,10.37,1.19.75,2.85,1.11,4.28,1.06,6.82-.23,13.62-.67,20.44-1.02,2.28-.12,3.73,1.05,4.72,3.03,3,6.02,5.99,12.04,9.12,17.98.58,1.11,1.64,2.17,2.74,2.76,5.86,3.11,11.77,6.12,17.72,9.04,2.41,1.18,3.58,2.78,3.38,5.56-.47,6.53-.88,13.07-1.05,19.61-.04,1.67.56,3.57,1.45,5,3.29,5.33,6.78,10.55,10.3,15.74,1.65,2.43,1.63,4.6-.02,7.02-3.63,5.33-7.2,10.71-10.65,16.17-.72,1.14-1.2,2.68-1.15,4.01.22,6.45.56,12.9,1.07,19.34.26,3.27-.88,5.23-3.89,6.64-5.83,2.74-11.55,5.74-17.24,8.77-1.1.59-2.15,1.66-2.73,2.77-3.1,5.86-6.09,11.78-9.01,17.74-1.2,2.45-2.92,3.51-5.65,3.23-3.25-.32-6.53-.43-9.8-.63h0"/>
    <path class="cls-2" d="m133.69,87c-28.18-.06-51.09,22.73-51.1,50.82,0,27.98,22.74,50.73,50.81,50.83,28.18.1,51.08-22.67,51.1-50.81.02-27.99-22.74-50.77-50.81-50.83m-.53,109.64c-33.02-.62-59.04-27.26-58.4-59.81.63-32.17,27.22-58.24,59.01-57.83,32.85.42,58.91,27.07,58.54,59.4-.36,31.94-26.42,58.34-59.15,58.24"/>
    <path class="cls-1" d="m126.3,146.97c8.36-7.9,16.6-15.69,24.85-23.48,1.25-1.18,2.5-2.39,3.85-3.45,1.79-1.41,3.65-1.12,5.14.44,1.52,1.59,1.45,3.47.13,5.19-.61.79-1.38,1.45-2.11,2.13-9.25,8.73-18.51,17.45-27.76,26.18-3.67,3.46-5.06,3.43-8.6-.21-4.69-4.81-9.37-9.64-14.07-14.45-1.34-1.37-2.29-2.87-1.56-4.87,1.06-2.9,4.37-3.41,6.86-.93,3.73,3.72,7.36,7.55,11.04,11.32.69.71,1.43,1.36,2.24,2.13"/>
  </g>
</svg>