<?xml version="1.0" encoding="UTF-8"?>
<svg id="content" xmlns="http://www.w3.org/2000/svg" xmlns:xlink="http://www.w3.org/1999/xlink" viewBox="0 0 278.81 271.15">
  <defs>
    <style>
      .cls-1 {
        fill: url(#Degradado_sin_nombre_7-3);
      }

      .cls-1, .cls-2, .cls-3, .cls-4 {
        stroke-width: 0px;
      }

      .cls-2 {
        fill: url(#Degradado_sin_nombre_7-2);
      }

      .cls-3 {
        fill: url(#Degradado_sin_nombre_7-4);
      }

      .cls-4 {
        fill: url(#Degradado_sin_nombre_7);
      }
    </style>
    <linearGradient id="Degradado_sin_nombre_7" data-name="Degradado sin nombre 7" x1="31.06" y1="135.55" x2="152.01" y2="135.55" gradientUnits="userSpaceOnUse">
      <stop offset="0" stop-color="#3a006a"/>
      <stop offset=".22" stop-color="#3c0c72"/>
      <stop offset=".62" stop-color="#422d87"/>
      <stop offset="1" stop-color="#4a53a0"/>
    </linearGradient>
    <linearGradient id="Degradado_sin_nombre_7-2" data-name="Degradado sin nombre 7" x1="140.18" y1="148.26" x2="243.92" y2="148.26" xlink:href="#Degradado_sin_nombre_7"/>
    <linearGradient id="Degradado_sin_nombre_7-3" data-name="Degradado sin nombre 7" x1="64.43" y1="74.75" x2="107.99" y2="74.75" xlink:href="#Degradado_sin_nombre_7"/>
    <linearGradient id="Degradado_sin_nombre_7-4" data-name="Degradado sin nombre 7" x1="167.38" y1="74.75" x2="210.19" y2="74.75" xlink:href="#Degradado_sin_nombre_7"/>
  </defs>
  <path class="cls-4" d="m75.55,139.36v3.03c0,.57.01,1.04.02,1.44.02.82.04,1.47-.05,2.19-2.31,18.07-5.82,39.28-14.39,59.61-2.77,6.58-.88,12.84,4.71,15.59,5.45,2.69,11.66.53,15.08-5.24,2.62-4.42,4.86-8.48,6.82-12.39,2.5-4.98,4.93-10.06,7.51-15.43,1.15-2.39,2.32-4.85,3.56-7.4l3.45-7.14,1.38,7.81c.13.75.24,1.35.34,1.85.17.89.29,1.54.36,2.21.34,3.05.67,6.1,1,9.16.66,6.16,1.35,12.52,2.15,18.75.71,5.48,4.99,9.15,10.42,8.89,5.56-.26,9.51-4.45,9.62-10.22.04-1.92-.09-3.85-.23-5.88l-.1-1.58c-.38-6.28-.77-12.56-1.16-18.84-1.24-20.11-2.52-40.9-3.66-61.37-.15-2.75.76-5.95,2.32-8.14,11.91-16.71,19.34-36.03,22.1-57.41.61-4.73-2.52-9.1-7.14-9.96-4.6-.86-8.6,1.72-9.96,6.42-.16.55-.28,1.11-.42,1.67-.14.59-.28,1.19-.44,1.78-6.83,24.51-18.71,39.79-37.37,48.09-16.35,7.27-32.69,14.56-49.04,21.85-2.98,1.33-7.71,4.42-5.87,10.19,1.35,4.24,5.35,6.2,10.67,5.27,5.71-1.01,11.44-1.97,17.37-2.97,2.6-.44,5.24-.88,7.93-1.34l2.99-.51Zm-4.94,88.13c-2.36,0-4.75-.54-7.04-1.66-8.05-3.97-11-13.09-7.16-22.18,8.32-19.74,11.76-40.51,14.02-58.22-1.67.28-3.31.56-4.95.83-5.92,1-11.63,1.96-17.33,2.96-7.85,1.38-14.29-2.05-16.43-8.75-2.17-6.79,1.15-13.08,8.66-16.43,16.35-7.29,32.69-14.58,49.05-21.85,17.16-7.63,28.12-21.86,34.51-44.79.14-.51.26-1.04.38-1.56.15-.65.3-1.3.49-1.94,2.09-7.25,8.59-11.38,15.81-10.04,7.29,1.35,12.24,8.23,11.28,15.65-2.87,22.22-10.61,42.32-23.01,59.72-.89,1.25-1.47,3.3-1.38,4.89,1.14,20.45,2.42,41.24,3.65,61.34.39,6.28.77,12.57,1.16,18.85l.1,1.55c.13,2.06.28,4.18.24,6.32-.16,8.45-6.26,14.86-14.51,15.24-8.06.37-14.69-5.24-15.74-13.35-.81-6.28-1.5-12.67-2.17-18.86-.16-1.53-.33-3.05-.5-4.58-2.54,5.3-4.95,10.32-7.44,15.28-2.02,4.02-4.3,8.17-6.99,12.7-3.38,5.7-8.96,8.88-14.71,8.88"/>
  <path class="cls-2" d="m171.41,179.08l3.28,1.66c2,1.01,2.73,2.21,3.25,3.25,1.62,3.24,3.23,6.49,4.83,9.73,3.6,7.3,7.33,14.86,11.23,22.14,3.17,5.94,9.74,8.21,15.27,5.27,6.09-3.23,6.4-10.15,4.67-15.55-3.96-12.33-7.66-25.38-11.31-39.89-1.27-5.03-1.97-10.1-2.71-15.47-.34-2.42-.68-4.92-1.09-7.45l-.56-3.51,3.51.58c2.85.47,5.6.91,8.27,1.34,5.88.95,11.43,1.85,16.96,2.82,4.15.73,9.48.46,11.33-4.92,1.47-4.28-.77-8.11-6.15-10.53-3.25-1.46-6.49-2.92-9.74-4.39-10.24-4.62-20.83-9.41-31.34-13.85-11.78-4.98-23.78-11.2-31.85-22.9-1.51-2.19-2.9-4.41-4.35-6.75-.31.93-.61,1.85-.91,2.75-2,6.08-3.89,11.82-6.86,17.22-2.86,5.2-2.41,8.85,1.66,13.47,3.08,3.49,4.29,7.53,3.82,12.7-.57,6.24-.9,12.62-1.22,18.8-.16,3.07-.32,6.14-.51,9.21-.37,6.04-.76,12.07-1.15,18.11-.81,12.64-1.65,25.71-2.31,38.56-.31,5.98,3.55,10.43,9.37,10.81,5.65.37,9.95-3.51,10.74-9.65.33-2.56.63-5.19.91-7.72l2.94-25.85Zm32.88,48.44c-5.91,0-11.66-3.35-14.8-9.23-3.93-7.36-7.68-14.95-11.3-22.29-.96-1.94-1.92-3.88-2.88-5.82l-1.74,15.33c-.29,2.56-.58,5.21-.92,7.82-1.15,8.85-7.78,14.65-16.16,14.1-8.65-.57-14.6-7.37-14.16-16.18.66-12.89,1.5-25.98,2.31-38.63.39-6.03.77-12.06,1.15-18.09.19-3.05.34-6.11.5-9.17.32-6.22.66-12.66,1.24-18.99.34-3.78-.42-6.42-2.56-8.85-5.51-6.25-6.22-12.21-2.31-19.33,2.74-4.98,4.56-10.5,6.48-16.35.85-2.59,1.73-5.27,2.71-7.93l1.79-4.87,2.78,4.38c.82,1.3,1.61,2.57,2.38,3.8,1.59,2.56,3.09,4.98,4.69,7.3,6.91,10.03,16.85,15.68,29.63,21.09,10.56,4.47,21.18,9.26,31.45,13.9,3.24,1.46,6.48,2.93,9.73,4.38,7.86,3.53,11.27,9.99,8.9,16.87-2.33,6.77-8.54,9.79-17.06,8.3-5.49-.97-11.03-1.86-16.89-2.81-1.57-.26-3.17-.51-4.81-.78.2,1.38.39,2.73.57,4.06.72,5.22,1.4,10.16,2.6,14.92,3.63,14.4,7.3,27.35,11.23,39.58,2.97,9.26.17,17.76-7.15,21.64-2.36,1.26-4.89,1.85-7.38,1.85"/>
  <path class="cls-1" d="m86.46,55.21c-7.33,0-13.65,4.5-15.75,11.65-3.39,11.57.86,22.92,9.89,26.41,5.1,1.97,11.08,1.08,15.6-2.31,4.72-3.54,7.12-9.21,6.59-15.55v-.22c.01-7.76-2.16-17.46-12.63-19.59-1.25-.25-2.49-.38-3.7-.38m-.25,44.2c-2.53,0-5.06-.45-7.45-1.37-11.54-4.45-17.11-18.48-12.96-32.63,3.21-10.94,13.88-17.18,25.38-14.85,10.8,2.19,16.74,10.9,16.73,24.51.65,8.1-2.49,15.37-8.63,19.97-3.82,2.87-8.46,4.36-13.07,4.36"/>
  <path class="cls-3" d="m188.37,55.25c-7.31,0-12.89,3.7-14.55,9.85-1.62,6.02-1.74,13.01-.32,18.68.88,3.54,3.22,6.51,6.59,8.39,4,2.23,9.08,2.69,13.59,1.24,7.77-2.49,11.39-8.91,11.4-20.19-.01-.14-.03-.32-.04-.54-.07-.88-.2-2.36-.44-3.8-1.24-7.3-6.74-12.73-13.69-13.5-.86-.09-1.71-.14-2.53-.14m-.1,44.14c-3.74,0-7.42-.92-10.68-2.74-4.62-2.57-7.84-6.7-9.07-11.63-1.64-6.58-1.51-14.32.35-21.25,2.53-9.42,11.41-14.7,22.59-13.47,9.24,1.03,16.55,8.15,18.17,17.73.28,1.65.42,3.27.5,4.24.02.24.03.43.05.55v.27c.04,13.53-4.99,22.01-14.94,25.2-2.28.73-4.63,1.09-6.96,1.09"/>
</svg>