<?xml version="1.0" encoding="UTF-8"?>
<svg id="content" xmlns="http://www.w3.org/2000/svg" xmlns:xlink="http://www.w3.org/1999/xlink" viewBox="0 0 278.81 271.15">
  <defs>
    <style>
      .cls-1 {
        fill: url(#Degradado_sin_nombre_7-3);
      }

      .cls-1, .cls-2, .cls-3 {
        stroke-width: 0px;
      }

      .cls-2 {
        fill: url(#Degradado_sin_nombre_7-2);
      }

      .cls-3 {
        fill: url(#Degradado_sin_nombre_7);
      }
    </style>
    <linearGradient id="Degradado_sin_nombre_7" data-name="Degradado sin nombre 7" x1="54" y1="140.22" x2="212.01" y2="140.22" gradientUnits="userSpaceOnUse">
      <stop offset="0" stop-color="#3a006a"/>
      <stop offset=".22" stop-color="#3c0c72"/>
      <stop offset=".62" stop-color="#422d87"/>
      <stop offset="1" stop-color="#4a53a0"/>
    </linearGradient>
    <linearGradient id="Degradado_sin_nombre_7-2" data-name="Degradado sin nombre 7" x1="105.21" y1="133.51" x2="174.85" y2="133.51" xlink:href="#Degradado_sin_nombre_7"/>
    <linearGradient id="Degradado_sin_nombre_7-3" data-name="Degradado sin nombre 7" x1="137.26" y1="110.15" x2="161.04" y2="110.15" xlink:href="#Degradado_sin_nombre_7"/>
  </defs>
  <path class="cls-3" d="m181.3,218.75c0-8.91-.31-17.08.08-25.21.49-9.96,3.07-19.05,9.78-27.16,17.91-21.66,19.24-53.57,3.63-76.82-14.82-22.07-36.29-29.79-61.96-27.87-27.58,2.07-50.75,21.53-55.39,48.36-1.83,10.59-6.25,19.22-11.87,27.75-1.27,1.92-2.59,3.81-3.72,5.82-3.34,5.91-2.63,7.88,3.56,10.49,1.54.65,3.04,1.47,4.65,1.87,4.6,1.15,6.17,4.07,6.32,8.68.26,8.15.87,16.31,1.66,24.44.77,7.87,5.94,13.3,13.78,13.77,4.92.3,10.05-.28,14.87-1.4,5.23-1.22,7.01.31,6.72,5.45-.22,3.89-.04,7.79-.04,11.85h67.94Zm-74.1-9.85c-6.24,0-11.68.46-17.02-.1-10.3-1.07-17.79-9.53-18.37-19.87-.25-4.38-1.18-8.79-.93-13.14.49-8.72-.94-15.39-11.13-17.71-2.39-.54-4.54-5.09-5.47-8.19-.69-2.27-.03-5.87,1.45-7.73,10.6-13.26,13.86-29.43,19.35-44.89,8.53-24,27.37-36.67,52.05-40.98,31.01-5.42,60.5,7.51,74.92,33.97,14.25,26.18,13.49,52.68-4.09,76.93-7.81,10.78-10.98,21.78-10.85,34.41.06,5.86.19,11.73.67,17.57.35,4.22-.8,6.21-5.39,6.19-23.25-.11-46.49-.1-69.74.01-4.11.02-5.66-1.71-5.47-5.67.16-3.53.03-7.07.03-10.8"/>
  <path class="cls-2" d="m148.7,167.73c-5.55,0-8.66-.19-11.73.09-1.42.13-3.87,1.06-3.94,1.8-.16,1.9.34,5.31,1.3,5.58,3.26.93,7.06,1.57,10.2.69,1.65-.46,2.33-4.33,4.17-8.16m-8.14-6.04c.19.51.38,1.03.57,1.55,2.14-1.54,5.64-2.69,6.19-4.67,2.06-7.37,6.03-13.05,11.71-18.07,7.73-6.84,10.96-15.73,9.18-25.99-2.26-12.97-12.49-22.53-24.92-23.78-12.75-1.29-24.68,5.46-29.56,16.74-5.3,12.24-1.91,24.81,8.05,34.1,4.1,3.82,7.75,8.91,9.59,14.14,1.78,5.03,3.41,7.72,9.19,5.98m13.1-.94c3.19,2.25,9.63,4.09.87,7.54-.86.34-.94,2.93-1.17,4.52-1.1,7.58-4.59,9.82-15.29,9.71-7.13-.07-10.45-2.99-11.35-9.78-.21-1.56-.3-3.58-1.28-4.53-4.63-4.49-4.74-4.38.93-7.6-.5-6.43-4.14-10.94-8.94-15-10.9-9.23-14.87-23.93-10.43-37.58,4.26-13.12,16.21-22.77,30.41-23.47,14.6-.73,26.04,5.32,33.29,18.24,7.8,13.91,4.36,31.78-8.07,42.78-4.66,4.12-8.42,8.65-8.95,15.18"/>
  <path class="cls-1" d="m161.04,118.78c-.4.54-1.41,1.87-2.42,3.21-1.21-1.32-3.24-2.5-3.5-3.99-1.42-8-5.96-12.4-13.9-13.88-1.49-.28-2.65-2.33-3.96-3.57,1.67-.79,3.37-2.32,5-2.24,9.75.46,18.84,9.96,18.78,20.47"/>
</svg>