<?xml version="1.0" encoding="UTF-8"?>
<svg id="Layer_1" data-name="Layer 1" xmlns="http://www.w3.org/2000/svg" viewBox="0 0 777.67 288">
  <defs>
    <style>
      .cls-1, .cls-2 {
        fill: #fff;
        stroke-width: 0px;
      }

      .cls-2 {
        fill-rule: evenodd;
      }
    </style>
  </defs>
  <path class="cls-1" d="m662.48,218.24c5.39,0,9.78,4.39,9.78,9.78s-4.39,9.78-9.78,9.78-9.79-4.39-9.79-9.78,4.39-9.78,9.79-9.78Zm.02,18.1c4.5,0,7.88-3.63,7.88-8.32s-3.39-8.32-7.88-8.32-7.94,3.64-7.94,8.32,3.39,8.32,7.94,8.32Zm-3.77-14.06h4.38c2.63,0,3.93,1.06,3.93,3.23,0,1.84-1.17,3.17-2.96,3.17l3.26,5.06h-1.98l-3.2-5.06h-1.57v5.06h-1.87v-11.46Zm1.87,4.93h2.22c1.44,0,2.36-.3,2.36-1.79,0-1.3-1.17-1.67-2.36-1.67h-2.22v3.46Z"/>
  <path class="cls-1" d="m459.44,129.39c8.67,0,16.54-7.88,16.54-16.54,0-9.46-5.44-19.7-17.33-19.7-14.8,0-23.66,11.95-24.84,16.84-.23.73-.37,1.42-.37,2.06v-18.12h-53.57l-3.15,17.33h15.76c4.73,0,8.67,4.73,8.67,9.45v48.05c0,4.73-4.45,9.45-8.67,9.45h-14.18l-4.73,18.12h90.59l3.94-18.12h-34.66v-37.95c0-8.66,1.21-14.65,1.27-14.96.88-4.29,2.08-8.2,5.82-12.47,3.15-3.15,4.73-1.58,4.73,0-.78,9.45,4.73,16.54,14.18,16.54Z"/>
  <path class="cls-1" d="m637.47,93.94l-3.15,17.33h7.09s0,0,.02,0c1.03,0,2.05.32,2.88.93,1.39,1.21,1.58,3.51,1.05,6.16l-14.18,35.45-14.97-35.45c-.79-3.94.79-7.09,4.73-7.09h7.88l3.15-17.33h-70.11l-2.23,10.38c-.8-1.05-1.93-2.45-2.29-2.89-2-2.44-4.08-4.47-6.6-5.98-6-4.08-12.27-5.02-19.03-5.02-5.64,0-13.47-.28-20.96,3.23-3.59,1.59-6.76,4.05-9.52,7.27-1.07,1.23-2.04,2.55-2.93,3.92-.35.54-.7,1.1-1.04,1.68v-12.6h-18.12v49.63l18.12-14.97c.79-14.97,10.24-25.21,21.27-25.21h1.57c4.44,0,7.84,1.66,10.11,4.02h0s1.98,2.14,2.91,5.28h0s1.32,3.5-.21,6.7l-.38.85c-1.38,2.81-4.3,5.74-9.82,8.43-18.83,9.17-34.71,16.79-42.5,24.58-6.09,6.09-8.34,16.34-5.53,25.61,3.46,12.23,15.19,19.85,29.68,19.85,12.6,0,22.84-5.51,29.14-14.96v12.6h52.78l3.94-18.12h-18.91c-2.86,0-6.31-3.15-6.31-6.29v-54.36c0-1.41-.17-2.83-.63-4.17-.19-.64-.44-1.35-.75-2.13h8.66c1.14.01,6.97.73,9.27,6.3.42,1.03,31.51,76.41,31.51,76.41-3.15,14.18-18.12,24.42-31.51,24.42h-29.15l-4.72,18.12h81.14l4.73-18.12h-22.85c11.03-6.29,13.39-11.82,18.12-22.05l32.3-77.99c2.36-3.94,4.72-6.3,9.45-7.09h14.18l3.94-17.33h-51.21Zm-103.98,66.96c0,10.83-6.84,19.35-15.28,19.66h-2.14c-6.22,0-9.62-6.34-10.25-10.59-.39-2.68-.21-5.58.27-8.24h0c1.83-11.41,15.12-23.67,22.66-23.67h1.58c1.57,0,3.15,1.57,3.15,3.15v19.69Z"/>
  <path class="cls-2" d="m349.16,118.36c16.55-6.3,24.42-17.33,24.42-30.72,0-20.48-22.06-37.03-48.84-37.03h-81.93l-4.73,18.12h20.48c6.3,0,11.03,3.94,11.03,10.24v87.44c0,5.52-6.65,11.82-11.82,11.82h-18.12l-4.73,18.12h88.23s20.47-1.02,30.28-5.79c17.86-6.71,27.22-19.31,27.22-35.17,0-17.33-11.82-31.52-31.51-37.03Zm-45.69-53.57c0-2.36,1.58-4.73,5.52-4.73h9.45c11.82.79,19.69,12.6,19.69,27.57,0,4.73-.79,11.03-1.58,14.18-2.98,8.2-10.92,13.57-24.45,13.46h-6.6c-1.31-.13-2.03-.69-2.03-2.43v-48.05Zm41.75,89.02c0,11.03,0,15.76-7.88,25.21-3.15,3.93-10.24,7.87-17.33,7.87-6.3,0-12.61-1.58-15.76-5.51-.79-1.58-.79-4.94-.79-6.52v-49.08c.02-1.04.59-1.56,1.53-1.9,2.45-.91,5.3-.85,7.86-.8,8.17.14,16.53,2.59,22.66,8.15,6.24,5.65,9.62,13.89,9.7,22.26,0,.11,0,.22,0,.33h0Z"/>
  <path class="cls-2" d="m147.77,100.69v-10.86h36.5v-39.32h-93.26v39.32h36.16v10.89c-21.58,4.82-38.18,24.43-38.18,47.27,0,27.07,22.08,48.43,48.43,48.43s48.43-21.37,48.43-48.43c0-22.89-16.12-42.53-38.09-47.3Zm-10.35,75.08c-14.96,0-27.07-12.82-27.07-27.78s12.11-27.07,27.07-27.07,27.78,12.11,27.78,27.07-12.11,27.78-27.78,27.78Z"/>
</svg>