<?xml version="1.0" encoding="UTF-8"?>
<svg id="Capa_1" data-name="Capa 1" xmlns="http://www.w3.org/2000/svg" viewBox="0 0 336.72 78.34">
  <defs>
    <style>
      .cls-1 {
        letter-spacing: .27em;
      }

      .cls-2 {
        letter-spacing: .29em;
      }

      .cls-3 {
        letter-spacing: .26em;
      }

      .cls-4 {
        letter-spacing: .28em;
      }

      .cls-5 {
        font-family: Raleway-Medium, Raleway;
        font-size: 24.83px;
        font-weight: 500;
      }

      .cls-5, .cls-6, .cls-7 {
        fill: #fff;
      }

      .cls-8 {
        letter-spacing: .28em;
      }

      .cls-6, .cls-7 {
        stroke-width: 0px;
      }

      .cls-7 {
        fill-rule: evenodd;
      }

      .cls-9 {
        letter-spacing: .29em;
      }

      .cls-10 {
        letter-spacing: .28em;
      }

      .cls-11 {
        letter-spacing: .26em;
      }
    </style>
  </defs>
  <text class="cls-5" transform="translate(4.67 72.76)"><tspan class="cls-9" x="0" y="0">Br</tspan><tspan class="cls-1" x="39.93" y="0">a</tspan><tspan class="cls-3" x="60.39" y="0">y</tspan><tspan class="cls-2" x="80.37" y="0" xml:space="preserve"> I</tspan><tspan class="cls-8" x="107.36" y="0">n</tspan><tspan class="cls-4" x="129.02" y="0">t</tspan><tspan class="cls-9" x="144.71" y="0">ern</tspan><tspan class="cls-10" x="204.42" y="0">a</tspan><tspan class="cls-2" x="225.21" y="0">tiona</tspan><tspan class="cls-11" x="318.56" y="0">l</tspan></text>
  <g>
    <polygon class="cls-7" points="14.39 34.99 0 .67 10.15 .67 19.49 24.72 19.8 24.72 29.15 .67 39.3 .67 24.91 34.99 14.39 34.99"/>
    <path class="cls-7" d="m59.61,7.45h-16.3V.62h18.64c1.94-.03,3.68.17,5.22.61,1.55.44,3.04,1.3,4.5,2.59,1.49,1.38,2.47,2.91,2.94,4.58.47,1.67.67,3.55.63,5.63v20.91h-23.68c-3.45-.05-6.09-1.02-7.9-2.9-1.81-1.88-2.72-4.33-2.73-7.37.01-3.07.93-5.54,2.73-7.43,1.81-1.88,4.45-2.85,7.9-2.91h14.76v-.3c.03-.93-.01-1.76-.11-2.48-.11-.72-.44-1.45-.99-2.2-.68-.89-1.5-1.44-2.45-1.64-.95-.21-2-.3-3.14-.26m-4.55,20.6h11.26v-6.82h-11.44c-1.14-.05-2.15.15-3.05.59-.91.45-1.39,1.39-1.44,2.86.05,1.43.55,2.37,1.49,2.8.93.43,2,.63,3.19.58"/>
    <polygon class="cls-7" points="116.04 34.99 101.66 .67 111.8 .67 121.15 24.72 121.46 24.72 130.8 .67 140.95 .67 126.56 34.99 116.04 34.99"/>
    <path class="cls-7" d="m149.53,22.69V7.87h-6.15V.67h23.68v7.2h-8.55v12.42c0,1.43.08,2.67.28,3.73.19,1.06.57,1.89,1.14,2.48,1,.92,2.26,1.35,3.75,1.29h3.39v7.2h-6.52c-.5.01-1.19-.03-2.1-.14-.9-.1-1.85-.32-2.85-.65-1-.32-1.89-.82-2.67-1.49-1.52-1.37-2.47-2.87-2.87-4.5-.4-1.63-.57-3.47-.52-5.52"/>
    <path class="cls-7" d="m187.91,7.83h-4.31v27.12h-8.92V.65h15.81c1.1-.03,2.29.14,3.56.49,1.26.36,2.43,1.03,3.51,2.02.95.94,1.63,1.96,2.07,3.09.44,1.11.65,2.22.64,3.31v5.16h-8.92v-3.44c0-.91-.32-1.73-.98-2.46-.76-.7-1.58-1.02-2.46-.98"/>
    <path class="cls-7" d="m222.88,35.67c-3.47-.02-6.51-.73-9.13-2.15-2.63-1.42-4.68-3.46-6.15-6.12-1.47-2.66-2.21-5.85-2.25-9.57.03-3.74.77-6.94,2.25-9.6,1.48-2.65,3.52-4.69,6.15-6.1,2.62-1.41,5.66-2.13,9.13-2.13,3.45,0,6.48.73,9.09,2.13,2.61,1.41,4.66,3.45,6.13,6.1,1.47,2.66,2.22,5.86,2.24,9.6-.02,3.73-.77,6.92-2.24,9.57-1.47,2.65-3.52,4.69-6.13,6.12-2.61,1.42-5.64,2.13-9.09,2.15m8.55-17.84c.07-3.08-.51-5.6-1.72-7.58-1.21-1.98-3.48-2.99-6.83-3.06-3.37.07-5.67,1.08-6.88,3.06-1.22,1.97-1.79,4.5-1.73,7.58-.07,3.08.51,5.61,1.73,7.58,1.21,1.97,3.51,2.99,6.88,3.06,3.35-.07,5.62-1.08,6.83-3.06,1.21-1.97,1.79-4.5,1.72-7.58"/>
    <path class="cls-7" d="m265.26,7.82h-9.28v27.12h-8.92V.62h19.93c1.9-.03,3.62.19,5.13.66,1.52.47,2.91,1.38,4.16,2.73,1.01,1.05,1.75,2.13,2.21,3.24.47,1.11.69,2.39.69,3.84v23.86h-8.92V12.8c.04-1.45-.41-2.66-1.36-3.63-.96-.97-2.17-1.43-3.63-1.35"/>
    <rect class="cls-6" x="286.77" y=".67" width="8.91" height="34.32"/>
    <path class="cls-7" d="m316.76.67h14.09v7.2h-12.73c-2.58.02-4.61.91-6.1,2.65-1.48,1.74-2.24,4.18-2.26,7.31.03,3.11.78,5.53,2.26,7.29,1.49,1.75,3.52,2.64,6.1,2.67h12.73v7.2h-14.09c-5.2-.01-9.25-1.48-12.12-4.4-2.87-2.92-4.33-7.17-4.36-12.76.03-5.61,1.49-9.87,4.36-12.77,2.87-2.91,6.91-4.37,12.12-4.39"/>
    <path class="cls-7" d="m82.87,22.69V.67h8.98v19.62c-.01,1.43.08,2.67.27,3.73.2,1.06.58,1.89,1.15,2.48,1,.92,2.26,1.35,3.75,1.29h3.39v7.2h-6.53c-.49.01-1.19-.03-2.1-.14-.9-.1-1.85-.32-2.85-.65-1-.32-1.89-.82-2.68-1.49-1.51-1.37-2.46-2.87-2.87-4.5-.4-1.63-.56-3.47-.52-5.52"/>
  </g>
</svg>