<?xml version="1.0" encoding="UTF-8"?>
<svg id="Capa_1" xmlns="http://www.w3.org/2000/svg" viewBox="0 0 1238.43 323.33">
  <defs>
    <style>
      .cls-1, .cls-2 {
        fill: #fff;
      }

      .cls-2 {
        fill-rule: evenodd;
      }
    </style>
  </defs>
  <g>
    <polygon class="cls-2" points="245.57 186.8 212.33 107.53 235.77 107.53 257.35 163.08 258.07 163.08 279.67 107.53 303.11 107.53 269.87 186.8 245.57 186.8"/>
    <path class="cls-2" d="M350.02,123.19h-37.66v-15.78h43.05c4.48-.07,8.51.4,12.06,1.42,3.58,1.01,7.03,3,10.38,5.97,3.45,3.19,5.71,6.71,6.78,10.58,1.08,3.86,1.56,8.21,1.44,13.01v48.3h-54.69c-7.97-.12-14.07-2.37-18.25-6.69-4.18-4.34-6.29-10.01-6.32-17.03.03-7.09,2.14-12.8,6.32-17.15,4.18-4.34,10.28-6.59,18.25-6.72h34.1v-.7c.06-2.15-.02-4.07-.26-5.72-.24-1.65-1.01-3.35-2.3-5.07-1.58-2.06-3.46-3.32-5.67-3.8-2.2-.49-4.62-.69-7.26-.61M339.5,170.78h26v-15.76h-26.42c-2.62-.1-4.96.34-7.05,1.35-2.09,1.03-3.21,3.22-3.33,6.6.13,3.31,1.26,5.47,3.44,6.46,2.16,1,4.61,1.44,7.36,1.35"/>
    <polygon class="cls-2" points="480.36 186.8 447.13 107.53 470.57 107.53 492.15 163.08 492.87 163.08 514.46 107.53 537.9 107.53 504.66 186.8 480.36 186.8"/>
    <path class="cls-2" d="M557.72,158.39v-34.23h-14.2v-16.63h54.69v16.63h-19.76v28.68c-.01,3.3.19,6.16.65,8.62.44,2.45,1.32,4.36,2.63,5.73,2.32,2.13,5.21,3.12,8.66,2.97h7.82v16.62h-15.06c-1.15.03-2.76-.08-4.85-.31-2.08-.24-4.27-.74-6.58-1.49-2.31-.75-4.37-1.89-6.18-3.45-3.5-3.17-5.71-6.64-6.62-10.4-.92-3.77-1.33-8.02-1.2-12.75"/>
    <path class="cls-2" d="M646.37,124.07h-9.94v62.65h-20.61v-79.25h36.52c2.55-.06,5.29.32,8.23,1.14,2.9.82,5.62,2.39,8.11,4.68,2.2,2.17,3.77,4.53,4.77,7.13,1.01,2.57,1.49,5.13,1.47,7.65v11.93h-20.59v-7.96c.02-2.11-.74-4.01-2.27-5.69-1.75-1.61-3.64-2.37-5.68-2.27"/>
    <path class="cls-2" d="M727.13,188.37c-8.02-.05-15.05-1.69-21.09-4.96-6.07-3.29-10.8-8-14.21-14.13-3.4-6.14-5.11-13.5-5.19-22.12.07-8.65,1.79-16.04,5.19-22.17,3.41-6.12,8.14-10.83,14.21-14.09,6.04-3.25,13.07-4.91,21.09-4.93,7.97.02,14.97,1.68,21.01,4.93,6.03,3.26,10.76,7.96,14.16,14.09,3.39,6.13,5.13,13.52,5.18,22.17-.05,8.61-1.79,15.98-5.18,22.12-3.4,6.13-8.13,10.84-14.16,14.13-6.04,3.27-13.04,4.91-21.01,4.96M746.88,147.16c.15-7.11-1.17-12.94-3.97-17.5-2.79-4.56-8.04-6.91-15.78-7.07-7.78.16-13.1,2.51-15.9,7.07-2.82,4.56-4.15,10.39-3.99,17.5-.15,7.12,1.17,12.96,3.99,17.51,2.81,4.56,8.12,6.91,15.9,7.07,7.74-.15,12.99-2.51,15.78-7.07,2.8-4.55,4.12-10.39,3.97-17.51"/>
    <path class="cls-2" d="M825.02,124.05h-21.44v62.65h-20.61v-79.28h46.03c4.39-.07,8.35.44,11.85,1.52,3.52,1.08,6.71,3.19,9.61,6.31,2.34,2.42,4.04,4.92,5.1,7.48,1.08,2.55,1.6,5.51,1.59,8.86v55.12h-20.6v-51.15c.09-3.36-.95-6.15-3.13-8.38-2.22-2.25-5.02-3.29-8.39-3.12"/>
    <rect class="cls-1" x="874.72" y="107.53" width="20.57" height="79.27"/>
    <path class="cls-2" d="M943.97,107.53h32.54v16.63h-29.41c-5.96.05-10.65,2.09-14.09,6.12-3.42,4.02-5.16,9.66-5.23,16.89.06,7.18,1.81,12.78,5.23,16.84,3.43,4.04,8.12,6.1,14.09,6.16h29.41v16.62h-32.54c-12.02-.03-21.36-3.43-27.99-10.16-6.63-6.75-10-16.56-10.08-29.47.07-12.96,3.45-22.8,10.08-29.5,6.62-6.71,15.97-10.09,27.99-10.13"/>
    <path class="cls-2" d="M403.75,158.39v-50.86h20.75v45.31c-.03,3.3.18,6.16.62,8.62.46,2.45,1.34,4.36,2.65,5.73,2.32,2.13,5.22,3.12,8.67,2.97h7.82v16.62h-15.08c-1.14.03-2.75-.08-4.85-.31-2.08-.24-4.28-.74-6.58-1.49-2.31-.75-4.38-1.89-6.18-3.45-3.5-3.17-5.69-6.64-6.62-10.4-.93-3.77-1.3-8.02-1.2-12.75"/>
  </g>
  <g>
    <path class="cls-1" d="M686.65,258.18v-25.98h13.29c3.41,0,5.96.62,7.65,1.87,1.68,1.25,2.52,2.89,2.52,4.92,0,1.34-.35,2.51-1.06,3.51s-1.7,1.79-2.97,2.38c-1.27.58-2.79.87-4.55.87l.74-1.78c1.83,0,3.43.28,4.79.84,1.36.56,2.42,1.36,3.17,2.41.75,1.05,1.13,2.33,1.13,3.84,0,2.25-.91,4-2.73,5.25-1.82,1.25-4.47,1.87-7.96,1.87h-14.03ZM693.92,252.88h6.16c1.26,0,2.22-.22,2.88-.65.66-.43.98-1.09.98-1.99s-.33-1.55-.98-1.99c-.66-.43-1.61-.65-2.88-.65h-6.68v-5.09h5.57c1.24,0,2.16-.21,2.78-.63.62-.42.93-1.05.93-1.89s-.31-1.47-.93-1.87c-.62-.41-1.55-.61-2.78-.61h-5.05v15.37Z"/>
    <path class="cls-1" d="M725.84,258.18v-25.98h11.88c2.38,0,4.42.38,6.14,1.15,1.72.77,3.05,1.87,3.99,3.32.94,1.45,1.41,3.16,1.41,5.14s-.47,3.64-1.41,5.07c-.94,1.42-2.27,2.51-3.99,3.27-1.72.75-3.77,1.13-6.14,1.13h-7.79l3.27-3.08v9.98h-7.35ZM733.19,248.98l-3.27-3.38h7.35c1.53,0,2.68-.33,3.43-1,.75-.67,1.13-1.6,1.13-2.78s-.38-2.15-1.13-2.82c-.76-.67-1.9-1-3.43-1h-7.35l3.27-3.38v14.36ZM741.91,258.18l-6.46-9.46h7.83l6.5,9.46h-7.87Z"/>
    <path class="cls-1" d="M760.84,258.18l11.47-25.98h7.24l11.51,25.98h-7.65l-8.98-22.38h2.9l-8.98,22.38h-7.5ZM767.11,253.14l1.89-5.42h12.69l1.89,5.42h-16.48Z"/>
    <path class="cls-1" d="M808.72,258.18v-10.99l1.71,4.42-11.62-19.41h7.76l8.39,14.07h-4.49l8.43-14.07h7.13l-11.58,19.41,1.63-4.42v10.99h-7.35Z"/>
    <path class="cls-1" d="M859.98,258.18v-25.98h7.35v25.98h-7.35Z"/>
    <path class="cls-1" d="M883.21,258.18v-25.98h6.05l14.33,17.3h-2.86v-17.3h7.2v25.98h-6.05l-14.33-17.3h2.86v17.3h-7.2Z"/>
    <path class="cls-1" d="M929.31,258.18v-20.15h-7.98v-5.83h23.27v5.83h-7.94v20.15h-7.35Z"/>
    <path class="cls-1" d="M958,258.18v-25.98h7.35v20.15h12.4v5.83h-19.75Z"/>
  </g>
</svg>