<?xml version="1.0" encoding="UTF-8"?>
<svg id="Capa_1" data-name="Capa 1" xmlns="http://www.w3.org/2000/svg" viewBox="0 0 605.11 166.98">
  <defs>
    <style>
      .cls-1 {
        letter-spacing: .28em;
      }

      .cls-2, .cls-3 {
        fill: #4954a0;
        stroke-width: 0px;
      }

      .cls-4 {
        letter-spacing: .26em;
      }

      .cls-5 {
        letter-spacing: .29em;
      }

      .cls-6 {
        letter-spacing: .29em;
      }

      .cls-7 {
        letter-spacing: .27em;
      }

      .cls-8 {
        letter-spacing: .29em;
      }

      .cls-3 {
        fill-rule: evenodd;
      }

      .cls-9 {
        fill: #3b2666;
        font-family: Raleway-SemiBold, Raleway;
        font-size: 39.45px;
        font-weight: 600;
      }

      .cls-10 {
        letter-spacing: .26em;
      }

      .cls-11 {
        letter-spacing: .28em;
      }

      .cls-12 {
        letter-spacing: .28em;
      }
    </style>
  </defs>
  <text class="cls-9" transform="translate(42.89 147.34)"><tspan class="cls-5" x="0" y="0">B</tspan><tspan class="cls-8" x="37.95" y="0">r</tspan><tspan class="cls-7" x="63.99" y="0">a</tspan><tspan class="cls-10" x="96.81" y="0">y</tspan><tspan class="cls-5" x="128.68" y="0" xml:space="preserve"> I</tspan><tspan class="cls-1" x="171.8" y="0">n</tspan><tspan class="cls-11" x="206.52" y="0">t</tspan><tspan class="cls-6" x="232.04" y="0">ern</tspan><tspan class="cls-12" x="327.78" y="0">a</tspan><tspan class="cls-5" x="361.19" y="0">tiona</tspan><tspan class="cls-4" x="511.38" y="0">l</tspan></text>
  <g>
    <polygon class="cls-3" points="62.6 91.43 39.73 36.91 55.86 36.91 70.7 75.11 71.2 75.11 86.05 36.91 102.18 36.91 79.31 91.43 62.6 91.43"/>
    <path class="cls-3" d="m134.45,47.68h-25.9v-10.85h29.61c3.08-.05,5.85.28,8.3.97,2.46.69,4.84,2.06,7.14,4.11,2.37,2.2,3.93,4.62,4.67,7.28.74,2.66,1.07,5.64.99,8.95v33.22h-37.62c-5.48-.08-9.68-1.63-12.55-4.6-2.87-2.99-4.33-6.89-4.34-11.72.02-4.88,1.47-8.81,4.34-11.8,2.87-2.99,7.07-4.53,12.55-4.62h23.46v-.48c.04-1.48-.02-2.8-.18-3.94-.17-1.14-.7-2.3-1.58-3.49-1.08-1.41-2.38-2.28-3.9-2.61-1.52-.34-3.17-.48-4.99-.42m-7.24,32.74h17.88v-10.84h-18.17c-1.8-.07-3.41.24-4.85.93-1.44.71-2.21,2.21-2.29,4.54.09,2.27.87,3.76,2.36,4.45,1.48.69,3.17.99,5.06.93"/>
    <polygon class="cls-3" points="224.1 91.43 201.24 36.91 217.37 36.91 232.21 75.11 232.71 75.11 247.55 36.91 263.68 36.91 240.81 91.43 224.1 91.43"/>
    <path class="cls-3" d="m277.31,71.89v-23.54h-9.77v-11.44h37.62v11.44h-13.59v19.73c0,2.27.13,4.24.44,5.93.3,1.68.9,3,1.81,3.94,1.6,1.47,3.59,2.15,5.95,2.04h5.38v11.44h-10.36c-.79.02-1.9-.05-3.34-.22-1.43-.16-2.94-.51-4.53-1.03-1.59-.51-3.01-1.3-4.25-2.37-2.41-2.18-3.93-4.57-4.56-7.16-.63-2.59-.91-5.51-.82-8.77"/>
    <path class="cls-3" d="m338.29,48.29h-6.84v43.09h-14.18v-54.51h25.12c1.75-.04,3.64.22,5.66.78,2,.57,3.86,1.64,5.58,3.22,1.51,1.49,2.59,3.12,3.28,4.9.69,1.77,1.03,3.53,1.01,5.26v8.2h-14.17v-5.47c.01-1.45-.51-2.76-1.56-3.91-1.2-1.11-2.51-1.63-3.9-1.56"/>
    <path class="cls-3" d="m393.84,92.51c-5.51-.03-10.35-1.16-14.51-3.41-4.17-2.26-7.43-5.5-9.77-9.72-2.34-4.22-3.52-9.29-3.57-15.21.05-5.95,1.23-11.03,3.57-15.25,2.34-4.21,5.6-7.45,9.77-9.69,4.16-2.23,8.99-3.38,14.51-3.39,5.48.01,10.3,1.16,14.45,3.39,4.15,2.24,7.4,5.48,9.74,9.69,2.33,4.22,3.53,9.3,3.57,15.25-.03,5.92-1.23,10.99-3.57,15.21-2.34,4.22-5.59,7.46-9.74,9.72-4.15,2.25-8.97,3.38-14.45,3.41m13.59-28.35c.1-4.89-.81-8.9-2.73-12.04-1.92-3.14-5.53-4.76-10.85-4.86-5.35.11-9.01,1.72-10.94,4.86-1.94,3.14-2.85,7.15-2.75,12.04-.1,4.9.81,8.91,2.75,12.04,1.93,3.14,5.58,4.76,10.94,4.86,5.32-.1,8.94-1.72,10.85-4.86,1.93-3.13,2.84-7.15,2.73-12.04"/>
    <path class="cls-3" d="m461.18,48.27h-14.75v43.09h-14.18v-54.53h31.66c3.02-.05,5.74.3,8.15,1.04,2.42.74,4.62,2.19,6.61,4.34,1.61,1.67,2.78,3.39,3.51,5.14.74,1.76,1.1,3.79,1.09,6.09v37.91h-14.17v-35.18c.06-2.31-.65-4.23-2.15-5.76-1.53-1.54-3.45-2.27-5.77-2.15"/>
    <rect class="cls-2" x="495.36" y="36.91" width="14.15" height="54.52"/>
    <path class="cls-3" d="m542.99,36.91h22.38v11.44h-20.23c-4.1.04-7.33,1.44-9.69,4.21-2.35,2.77-3.55,6.64-3.6,11.61.04,4.94,1.24,8.79,3.6,11.59,2.36,2.78,5.59,4.2,9.69,4.24h20.23v11.44h-22.38c-8.27-.02-14.69-2.36-19.25-6.99-4.56-4.64-6.88-11.39-6.93-20.27.05-8.91,2.37-15.68,6.93-20.29,4.56-4.62,10.98-6.94,19.25-6.97"/>
    <path class="cls-3" d="m171.4,71.89v-34.98h14.27v31.17c-.02,2.27.12,4.24.43,5.93.32,1.68.92,3,1.82,3.94,1.59,1.47,3.59,2.15,5.96,2.04h5.38v11.44h-10.37c-.78.02-1.89-.05-3.34-.22-1.43-.16-2.94-.51-4.52-1.03-1.59-.51-3.01-1.3-4.25-2.37-2.4-2.18-3.91-4.57-4.56-7.16-.64-2.59-.9-5.51-.82-8.77"/>
  </g>
</svg>