<?xml version="1.0" encoding="UTF-8"?>
<svg id="Capa_1" xmlns="http://www.w3.org/2000/svg" viewBox="0 0 128.23 128.23">
  <defs>
    <style>
      .cls-1 {
        fill: #5b72b3;
      }
    </style>
  </defs>
  <path class="cls-1" d="M98.17,0H30.05C13.46,0,0,13.46,0,30.05v68.12C0,114.77,13.46,128.23,30.05,128.23h22.14v-38.88h-17.41v-19.82h17.41v-15.11c0-17.19,10.24-26.68,25.9-26.68,7.5,0,15.35,1.34,15.35,1.34v16.88h-8.65c-8.52,0-11.18,5.29-11.18,10.71v12.86h19.02l-3.04,19.82h-15.98v38.88h24.55c16.6,0,30.05-13.45,30.05-30.05V30.05c0-16.6-13.46-30.05-30.05-30.05Z"/>
  <path class="cls-1" d="M52.19,128.39c.46-.05.92-.09,1.39-.09h20.04v-.08h-21.43v.17Z"/>
</svg>