<?xml version="1.0" encoding="UTF-8"?>
<svg id="Capa_1" xmlns="http://www.w3.org/2000/svg" viewBox="0 0 128.23 128.23">
  <defs>
    <style>
      .cls-1 {
        fill: none;
      }

      .cls-2 {
        fill: #5b72b3;
      }
    </style>
  </defs>
  <path class="cls-1" d="M93.78,0H29.06c-8.03,0-15.29,3.25-20.55,8.51-2.49,2.49-4.54,5.44-6,8.7C.9,20.83,0,24.84,0,29.06v69.95c0,4.9,1.21,9.52,3.36,13.57,1.37,2.58,3.11,4.93,5.16,6.98,5.26,5.26,12.52,8.51,20.55,8.51h69.95c8.03,0,15.29-3.25,20.55-8.51,2.05-2.05,3.79-4.4,5.15-6.98,2.14-4.05,3.36-8.67,3.36-13.57V29.06c0-4.22-.9-8.23-2.52-11.85-1.46-3.26-3.5-6.21-6-8.7-5.26-5.26-12.52-8.51-20.55-8.51h-5.23Z"/>
  <g>
    <path class="cls-2" d="M84.38,26.06h-40.68c-9.95,0-18.02,8.07-18.02,18.02v40.68c0,9.95,8.07,18.02,18.02,18.02h40.68c9.95,0,18.02-8.07,18.02-18.02v-40.68c0-9.95-8.07-18.02-18.02-18.02ZM64.03,88.82c-13.48,0-24.4-10.92-24.4-24.4s10.92-24.4,24.4-24.4,24.4,10.92,24.4,24.4-10.92,24.4-24.4,24.4ZM89.25,44.78c-3.14,0-5.68-2.54-5.68-5.68s2.54-5.68,5.68-5.68,5.68,2.55,5.68,5.68-2.55,5.68-5.68,5.68Z"/>
    <path class="cls-2" d="M64.03,48.61c-8.74,0-15.82,7.08-15.82,15.82s7.08,15.82,15.82,15.82,15.82-7.08,15.82-15.82-7.08-15.82-15.82-15.82Z"/>
    <path class="cls-2" d="M98.17,0H30.05C13.46,0,0,13.46,0,30.05v68.12C0,114.77,13.46,128.23,30.05,128.23h68.12c16.6,0,30.05-13.45,30.05-30.05V30.05c0-16.6-13.46-30.05-30.05-30.05ZM111.05,84.06c0,14.99-12.15,27.14-27.14,27.14h-39.75c-14.99,0-27.14-12.15-27.14-27.14v-39.75c0-14.99,12.15-27.14,27.14-27.14h39.75c14.99,0,27.14,12.15,27.14,27.14v39.75Z"/>
  </g>
</svg>