<?xml version="1.0" encoding="UTF-8"?>
<svg id="Capa_1" xmlns="http://www.w3.org/2000/svg" viewBox="0 0 128.23 128.23">
  <defs>
    <style>
      .cls-1 {
        fill: #5b72b3;
      }
    </style>
  </defs>
  <path class="cls-1" d="M98.17,0H30.05C13.46,0,0,13.46,0,30.05v68.12c0,16.6,13.46,30.05,30.05,30.05h68.12c16.6,0,30.05-13.45,30.05-30.05V30.05c0-16.6-13.46-30.05-30.05-30.05ZM43.98,100.49h-15.13v-48.6h15.13v48.6ZM36.42,45.25c-4.85,0-8.77-3.93-8.77-8.77s3.92-8.75,8.77-8.75,8.76,3.93,8.76,8.75-3.92,8.77-8.76,8.77ZM100.58,100.49h-15.1v-23.63c0-5.64-.11-12.89-7.85-12.89s-9.06,6.14-9.06,12.48v24.04h-15.1v-48.6h14.49v6.65h.2c2.02-3.82,6.95-7.85,14.31-7.85,15.3,0,18.12,10.06,18.12,23.15v26.66Z"/>
</svg>