<?xml version="1.0" encoding="UTF-8"?>
<svg id="Capa_1" xmlns="http://www.w3.org/2000/svg" viewBox="0 0 150.83 105.58">
  <defs>
    <style>
      .cls-1 {
        fill: #5b72b3;
        fill-rule: evenodd;
      }
    </style>
  </defs>
  <path class="cls-1" d="M147.69,16.48c-1.73-6.48-6.84-11.59-13.34-13.34C122.59,0,75.42,0,75.42,0c0,0-47.15,0-58.93,3.14-6.48,1.73-11.59,6.84-13.34,13.34C0,28.24,0,52.79,0,52.79c0,0,0,24.55,3.14,36.3,1.73,6.48,6.84,11.59,13.34,13.34,11.78,3.14,58.93,3.14,58.93,3.14,0,0,47.17,0,58.93-3.14,6.48-1.73,11.59-6.84,13.34-13.34,3.14-11.76,3.14-36.3,3.14-36.3,0,0,0-24.55-3.14-36.31ZM60.35,75.42V30.16l39.18,22.63-39.18,22.63Z"/>
</svg>