<?xml version="1.0" encoding="UTF-8"?>
<svg id="content" xmlns="http://www.w3.org/2000/svg" xmlns:xlink="http://www.w3.org/1999/xlink" viewBox="0 0 127 101.04">
  <defs>
    <style>
      .cls-1 {
        stroke: url(#Nueva_muestra_de_degradado_1-39);
      }

      .cls-1, .cls-2, .cls-3, .cls-4, .cls-5, .cls-6, .cls-7, .cls-8, .cls-9, .cls-10, .cls-11, .cls-12, .cls-13, .cls-14, .cls-15, .cls-16, .cls-17, .cls-18, .cls-19, .cls-20, .cls-21, .cls-22, .cls-23, .cls-24, .cls-25, .cls-26, .cls-27, .cls-28, .cls-29, .cls-30, .cls-31, .cls-32, .cls-33, .cls-34, .cls-35, .cls-36, .cls-37, .cls-38, .cls-39, .cls-40, .cls-41, .cls-42, .cls-43, .cls-44, .cls-45, .cls-46, .cls-47, .cls-48, .cls-49, .cls-50, .cls-51, .cls-52, .cls-53, .cls-54, .cls-55, .cls-56, .cls-57, .cls-58, .cls-59, .cls-60, .cls-61, .cls-62, .cls-63, .cls-64, .cls-65, .cls-66, .cls-67, .cls-68, .cls-69, .cls-70, .cls-71, .cls-72, .cls-73, .cls-74, .cls-75, .cls-76, .cls-77, .cls-78, .cls-79, .cls-80, .cls-81, .cls-82, .cls-83, .cls-84, .cls-85, .cls-86, .cls-87, .cls-88, .cls-89, .cls-90, .cls-91, .cls-92, .cls-93, .cls-94, .cls-95, .cls-96, .cls-97, .cls-98, .cls-99, .cls-100, .cls-101, .cls-102 {
        fill: none;
        stroke-miterlimit: 10;
      }

      .cls-2 {
        stroke: url(#Nueva_muestra_de_degradado_1-72);
      }

      .cls-3 {
        stroke: url(#Nueva_muestra_de_degradado_1-14);
      }

      .cls-4 {
        stroke: url(#Nueva_muestra_de_degradado_1-43);
      }

      .cls-5 {
        stroke: url(#Nueva_muestra_de_degradado_1-21);
      }

      .cls-6 {
        stroke: url(#Nueva_muestra_de_degradado_1-87);
      }

      .cls-7 {
        stroke: url(#Nueva_muestra_de_degradado_1-73);
      }

      .cls-8 {
        stroke: url(#Nueva_muestra_de_degradado_1-64);
      }

      .cls-9 {
        stroke: url(#Nueva_muestra_de_degradado_1-17);
      }

      .cls-10 {
        stroke: url(#Nueva_muestra_de_degradado_1-8);
      }

      .cls-11 {
        stroke: url(#Nueva_muestra_de_degradado_1-57);
      }

      .cls-12 {
        stroke: url(#Nueva_muestra_de_degradado_1-23);
      }

      .cls-13 {
        stroke: url(#Nueva_muestra_de_degradado_1-79);
      }

      .cls-14 {
        stroke: url(#Nueva_muestra_de_degradado_1-55);
      }

      .cls-15 {
        stroke: url(#Nueva_muestra_de_degradado_1-77);
      }

      .cls-16 {
        stroke: url(#Nueva_muestra_de_degradado_1-88);
      }

      .cls-17 {
        stroke: url(#Nueva_muestra_de_degradado_1-4);
      }

      .cls-18 {
        stroke: url(#Nueva_muestra_de_degradado_1-81);
      }

      .cls-19 {
        stroke: url(#Nueva_muestra_de_degradado_1-63);
      }

      .cls-20 {
        stroke: url(#Nueva_muestra_de_degradado_1-50);
      }

      .cls-21 {
        stroke: url(#Nueva_muestra_de_degradado_1-94);
      }

      .cls-22 {
        stroke: url(#Nueva_muestra_de_degradado_1-93);
      }

      .cls-23 {
        stroke: url(#Nueva_muestra_de_degradado_1-27);
      }

      .cls-24 {
        stroke: url(#Nueva_muestra_de_degradado_1-7);
      }

      .cls-25 {
        stroke: url(#Nueva_muestra_de_degradado_1-83);
      }

      .cls-26 {
        stroke: url(#Nueva_muestra_de_degradado_1-3);
      }

      .cls-27 {
        stroke: url(#Nueva_muestra_de_degradado_1-84);
      }

      .cls-28 {
        stroke: url(#Nueva_muestra_de_degradado_1-42);
      }

      .cls-29 {
        stroke: url(#Nueva_muestra_de_degradado_1-56);
      }

      .cls-30 {
        stroke: url(#Nueva_muestra_de_degradado_1-52);
      }

      .cls-31 {
        stroke: url(#Nueva_muestra_de_degradado_1-35);
      }

      .cls-32 {
        stroke: url(#Nueva_muestra_de_degradado_1-82);
      }

      .cls-33 {
        stroke: url(#Nueva_muestra_de_degradado_1-96);
      }

      .cls-34 {
        stroke: url(#Nueva_muestra_de_degradado_1-34);
      }

      .cls-35 {
        stroke: url(#Nueva_muestra_de_degradado_1-90);
      }

      .cls-103 {
        opacity: .8;
      }

      .cls-36 {
        stroke: url(#Nueva_muestra_de_degradado_1-95);
      }

      .cls-37 {
        stroke: url(#Nueva_muestra_de_degradado_1-68);
      }

      .cls-38 {
        stroke: url(#Nueva_muestra_de_degradado_1-60);
      }

      .cls-39 {
        stroke: url(#Nueva_muestra_de_degradado_1-51);
      }

      .cls-40 {
        stroke: url(#Nueva_muestra_de_degradado_1-5);
      }

      .cls-41 {
        stroke: url(#Nueva_muestra_de_degradado_1-92);
      }

      .cls-42 {
        stroke: url(#Nueva_muestra_de_degradado_1-49);
      }

      .cls-43 {
        stroke: url(#Nueva_muestra_de_degradado_1-80);
      }

      .cls-44 {
        stroke: url(#Nueva_muestra_de_degradado_1-101);
      }

      .cls-45 {
        stroke: url(#Nueva_muestra_de_degradado_1-76);
      }

      .cls-46 {
        stroke: url(#Nueva_muestra_de_degradado_1-28);
      }

      .cls-47 {
        stroke: url(#Nueva_muestra_de_degradado_1-29);
      }

      .cls-48 {
        stroke: url(#Nueva_muestra_de_degradado_1-78);
      }

      .cls-49 {
        stroke: url(#Nueva_muestra_de_degradado_1-47);
      }

      .cls-50 {
        stroke: url(#Nueva_muestra_de_degradado_1-45);
      }

      .cls-51 {
        stroke: url(#Nueva_muestra_de_degradado_1-97);
      }

      .cls-52 {
        stroke: url(#Nueva_muestra_de_degradado_1-19);
      }

      .cls-53 {
        stroke: url(#Nueva_muestra_de_degradado_1-102);
      }

      .cls-54 {
        stroke: url(#Nueva_muestra_de_degradado_1-18);
      }

      .cls-55 {
        stroke: url(#Nueva_muestra_de_degradado_1-70);
      }

      .cls-56 {
        stroke: url(#Nueva_muestra_de_degradado_1-12);
      }

      .cls-57 {
        stroke: url(#Nueva_muestra_de_degradado_1-65);
      }

      .cls-58 {
        stroke: url(#Nueva_muestra_de_degradado_1-30);
      }

      .cls-59 {
        stroke: url(#Nueva_muestra_de_degradado_1-6);
      }

      .cls-60 {
        stroke: url(#Nueva_muestra_de_degradado_1-69);
      }

      .cls-61 {
        stroke: url(#Nueva_muestra_de_degradado_1-67);
      }

      .cls-62 {
        stroke: url(#Nueva_muestra_de_degradado_1-61);
      }

      .cls-63 {
        stroke: url(#Nueva_muestra_de_degradado_1-22);
      }

      .cls-64 {
        stroke: url(#Nueva_muestra_de_degradado_1-48);
      }

      .cls-65 {
        stroke: url(#Nueva_muestra_de_degradado_1-26);
      }

      .cls-66 {
        stroke: url(#Nueva_muestra_de_degradado_1-13);
      }

      .cls-67 {
        stroke: url(#Nueva_muestra_de_degradado_1-71);
      }

      .cls-68 {
        stroke: url(#Nueva_muestra_de_degradado_1-46);
      }

      .cls-69 {
        stroke: url(#Nueva_muestra_de_degradado_1-38);
      }

      .cls-70 {
        stroke: url(#Nueva_muestra_de_degradado_1-37);
      }

      .cls-71 {
        stroke: url(#Nueva_muestra_de_degradado_1-24);
      }

      .cls-72 {
        stroke: url(#Nueva_muestra_de_degradado_1-25);
      }

      .cls-73 {
        stroke: url(#Nueva_muestra_de_degradado_1-66);
      }

      .cls-74 {
        stroke: url(#Nueva_muestra_de_degradado_1-85);
      }

      .cls-75 {
        stroke: url(#Nueva_muestra_de_degradado_1-58);
      }

      .cls-76 {
        stroke: url(#Nueva_muestra_de_degradado_1-32);
      }

      .cls-77 {
        stroke: url(#Nueva_muestra_de_degradado_1-41);
      }

      .cls-78 {
        stroke: url(#Nueva_muestra_de_degradado_1-36);
      }

      .cls-79 {
        stroke: url(#Nueva_muestra_de_degradado_1-91);
      }

      .cls-80 {
        stroke: url(#Nueva_muestra_de_degradado_1-54);
      }

      .cls-81 {
        stroke: url(#Nueva_muestra_de_degradado_1-40);
      }

      .cls-82 {
        stroke: url(#Nueva_muestra_de_degradado_1-53);
      }

      .cls-83 {
        stroke: url(#Nueva_muestra_de_degradado_1-10);
      }

      .cls-84 {
        stroke: url(#Nueva_muestra_de_degradado_1-15);
      }

      .cls-85 {
        stroke: url(#Nueva_muestra_de_degradado_1-100);
      }

      .cls-86 {
        stroke: url(#Nueva_muestra_de_degradado_1-2);
      }

      .cls-87 {
        stroke: url(#Nueva_muestra_de_degradado_1-11);
      }

      .cls-88 {
        stroke: url(#Nueva_muestra_de_degradado_1-9);
      }

      .cls-89 {
        stroke: url(#Nueva_muestra_de_degradado_1-89);
      }

      .cls-90 {
        stroke: url(#Nueva_muestra_de_degradado_1-99);
      }

      .cls-91 {
        stroke: url(#Nueva_muestra_de_degradado_1-20);
      }

      .cls-92 {
        stroke: url(#Nueva_muestra_de_degradado_1-44);
      }

      .cls-93 {
        stroke: url(#Nueva_muestra_de_degradado_1);
      }

      .cls-94 {
        stroke: url(#Nueva_muestra_de_degradado_1-74);
      }

      .cls-95 {
        stroke: url(#Nueva_muestra_de_degradado_1-33);
      }

      .cls-96 {
        stroke: url(#Nueva_muestra_de_degradado_1-98);
      }

      .cls-97 {
        stroke: url(#Nueva_muestra_de_degradado_1-62);
      }

      .cls-98 {
        stroke: url(#Nueva_muestra_de_degradado_1-86);
      }

      .cls-99 {
        stroke: url(#Nueva_muestra_de_degradado_1-31);
      }

      .cls-100 {
        stroke: url(#Nueva_muestra_de_degradado_1-59);
      }

      .cls-101 {
        stroke: url(#Nueva_muestra_de_degradado_1-75);
      }

      .cls-102 {
        stroke: url(#Nueva_muestra_de_degradado_1-16);
      }
    </style>
    <linearGradient id="Nueva_muestra_de_degradado_1" data-name="Nueva muestra de degradado 1" x1="34.26" y1="37.67" x2="53.43" y2="37.67" gradientUnits="userSpaceOnUse">
      <stop offset="0" stop-color="#3a006a"/>
      <stop offset=".29" stop-color="#402381"/>
      <stop offset=".56" stop-color="#453d92"/>
      <stop offset=".81" stop-color="#484d9c"/>
      <stop offset="1" stop-color="#4a53a0"/>
    </linearGradient>
    <linearGradient id="Nueva_muestra_de_degradado_1-2" data-name="Nueva muestra de degradado 1" x1="53.57" y1="29.97" x2="72.74" y2="29.97" xlink:href="#Nueva_muestra_de_degradado_1"/>
    <linearGradient id="Nueva_muestra_de_degradado_1-3" data-name="Nueva muestra de degradado 1" y1="78.76" y2="78.76" xlink:href="#Nueva_muestra_de_degradado_1"/>
    <linearGradient id="Nueva_muestra_de_degradado_1-4" data-name="Nueva muestra de degradado 1" x1="15.18" y1="50.52" x2="111.37" y2="50.52" xlink:href="#Nueva_muestra_de_degradado_1"/>
    <linearGradient id="Nueva_muestra_de_degradado_1-5" data-name="Nueva muestra de degradado 1" x1="28.16" y1="86.53" x2="34.12" y2="86.53" xlink:href="#Nueva_muestra_de_degradado_1"/>
    <linearGradient id="Nueva_muestra_de_degradado_1-6" data-name="Nueva muestra de degradado 1" x1="15.18" y1="45.27" x2="34.12" y2="45.27" xlink:href="#Nueva_muestra_de_degradado_1"/>
    <linearGradient id="Nueva_muestra_de_degradado_1-7" data-name="Nueva muestra de degradado 1" x1="72.88" y1="63.22" x2="92.05" y2="63.22" xlink:href="#Nueva_muestra_de_degradado_1"/>
    <linearGradient id="Nueva_muestra_de_degradado_1-8" data-name="Nueva muestra de degradado 1" x1="53.57" y1="70.99" x2="72.74" y2="70.99" xlink:href="#Nueva_muestra_de_degradado_1"/>
    <linearGradient id="Nueva_muestra_de_degradado_1-9" data-name="Nueva muestra de degradado 1" x1="92.2" y1="55.45" x2="111.37" y2="55.45" xlink:href="#Nueva_muestra_de_degradado_1"/>
    <linearGradient id="Nueva_muestra_de_degradado_1-10" data-name="Nueva muestra de degradado 1" x1="72.88" y1="22.27" x2="92.05" y2="22.27" xlink:href="#Nueva_muestra_de_degradado_1"/>
    <linearGradient id="Nueva_muestra_de_degradado_1-11" data-name="Nueva muestra de degradado 1" x1="92.2" y1="14.57" x2="98.33" y2="14.57" xlink:href="#Nueva_muestra_de_degradado_1"/>
    <linearGradient id="Nueva_muestra_de_degradado_1-12" data-name="Nueva muestra de degradado 1" x1="13.81" y1="46.04" x2="15.04" y2="46.04" xlink:href="#Nueva_muestra_de_degradado_1"/>
    <linearGradient id="Nueva_muestra_de_degradado_1-13" data-name="Nueva muestra de degradado 1" x1="15.18" y1="70.96" x2="35.07" y2="70.96" xlink:href="#Nueva_muestra_de_degradado_1"/>
    <linearGradient id="Nueva_muestra_de_degradado_1-14" data-name="Nueva muestra de degradado 1" y1="55.66" x2="54.38" y2="55.66" xlink:href="#Nueva_muestra_de_degradado_1"/>
    <linearGradient id="Nueva_muestra_de_degradado_1-15" data-name="Nueva muestra de degradado 1" x1="33.12" y1="38.85" x2="35.26" y2="38.85" xlink:href="#Nueva_muestra_de_degradado_1"/>
    <linearGradient id="Nueva_muestra_de_degradado_1-16" data-name="Nueva muestra de degradado 1" x1="33.12" y1="85.33" x2="35.26" y2="85.33" xlink:href="#Nueva_muestra_de_degradado_1"/>
    <linearGradient id="Nueva_muestra_de_degradado_1-17" data-name="Nueva muestra de degradado 1" x1="53.57" y1="60.55" x2="73.7" y2="60.55" xlink:href="#Nueva_muestra_de_degradado_1"/>
    <linearGradient id="Nueva_muestra_de_degradado_1-18" data-name="Nueva muestra de degradado 1" x1="52.43" y1="77.57" x2="54.57" y2="77.57" xlink:href="#Nueva_muestra_de_degradado_1"/>
    <linearGradient id="Nueva_muestra_de_degradado_1-19" data-name="Nueva muestra de degradado 1" x1="53.57" y1="40.26" x2="73.7" y2="40.26" xlink:href="#Nueva_muestra_de_degradado_1"/>
    <linearGradient id="Nueva_muestra_de_degradado_1-20" data-name="Nueva muestra de degradado 1" x1="52.43" y1="31.15" x2="54.57" y2="31.15" xlink:href="#Nueva_muestra_de_degradado_1"/>
    <linearGradient id="Nueva_muestra_de_degradado_1-21" data-name="Nueva muestra de degradado 1" x1="72.88" y1="24.86" x2="93.01" y2="24.86" xlink:href="#Nueva_muestra_de_degradado_1"/>
    <linearGradient id="Nueva_muestra_de_degradado_1-22" data-name="Nueva muestra de degradado 1" x1="71.74" y1="23.45" x2="73.88" y2="23.45" xlink:href="#Nueva_muestra_de_degradado_1"/>
    <linearGradient id="Nueva_muestra_de_degradado_1-23" data-name="Nueva muestra de degradado 1" x1="71.74" y1="69.8" x2="73.88" y2="69.8" xlink:href="#Nueva_muestra_de_degradado_1"/>
    <linearGradient id="Nueva_muestra_de_degradado_1-24" data-name="Nueva muestra de degradado 1" x1="91.05" y1="62.03" x2="93.2" y2="62.03" xlink:href="#Nueva_muestra_de_degradado_1"/>
    <linearGradient id="Nueva_muestra_de_degradado_1-25" data-name="Nueva muestra de degradado 1" x1="92.2" y1="15.3" x2="100.17" y2="15.3" xlink:href="#Nueva_muestra_de_degradado_1"/>
    <linearGradient id="Nueva_muestra_de_degradado_1-26" data-name="Nueva muestra de degradado 1" x1="91.05" y1="15.75" x2="93.2" y2="15.75" xlink:href="#Nueva_muestra_de_degradado_1"/>
    <linearGradient id="Nueva_muestra_de_degradado_1-27" data-name="Nueva muestra de degradado 1" x1="13.84" y1="84.22" x2="15.04" y2="84.22" xlink:href="#Nueva_muestra_de_degradado_1"/>
    <linearGradient id="Nueva_muestra_de_degradado_1-28" data-name="Nueva muestra de degradado 1" x1="13.84" y1="79.47" x2="15.04" y2="79.47" xlink:href="#Nueva_muestra_de_degradado_1"/>
    <linearGradient id="Nueva_muestra_de_degradado_1-29" data-name="Nueva muestra de degradado 1" x1="97.31" y1="12.34" x2="111.37" y2="12.34" xlink:href="#Nueva_muestra_de_degradado_1"/>
    <linearGradient id="Nueva_muestra_de_degradado_1-30" data-name="Nueva muestra de degradado 1" x1="98.62" y1="11.53" x2="112.69" y2="11.53" xlink:href="#Nueva_muestra_de_degradado_1"/>
    <linearGradient id="Nueva_muestra_de_degradado_1-31" data-name="Nueva muestra de degradado 1" x1="11.82" y1="10.22" x2="15.62" y2="10.22" xlink:href="#Nueva_muestra_de_degradado_1"/>
    <linearGradient id="Nueva_muestra_de_degradado_1-32" data-name="Nueva muestra de degradado 1" x1="11.18" y1="11.03" x2="14.62" y2="11.03" xlink:href="#Nueva_muestra_de_degradado_1"/>
    <linearGradient id="Nueva_muestra_de_degradado_1-33" data-name="Nueva muestra de degradado 1" x1="14" y1="12.24" x2="14.85" y2="12.24" xlink:href="#Nueva_muestra_de_degradado_1"/>
    <linearGradient id="Nueva_muestra_de_degradado_1-34" data-name="Nueva muestra de degradado 1" x1="13.87" y1="12.05" x2="34.12" y2="12.05" xlink:href="#Nueva_muestra_de_degradado_1"/>
    <linearGradient id="Nueva_muestra_de_degradado_1-35" data-name="Nueva muestra de degradado 1" y1="12.05" y2="12.05" xlink:href="#Nueva_muestra_de_degradado_1"/>
    <linearGradient id="Nueva_muestra_de_degradado_1-36" data-name="Nueva muestra de degradado 1" x1="33.12" y1="12.05" x2="35.26" y2="12.05" xlink:href="#Nueva_muestra_de_degradado_1"/>
    <linearGradient id="Nueva_muestra_de_degradado_1-37" data-name="Nueva muestra de degradado 1" x1="53.57" y1="12.05" x2="72.74" y2="12.05" xlink:href="#Nueva_muestra_de_degradado_1"/>
    <linearGradient id="Nueva_muestra_de_degradado_1-38" data-name="Nueva muestra de degradado 1" x1="52.43" y1="12.05" x2="54.57" y2="12.05" xlink:href="#Nueva_muestra_de_degradado_1"/>
    <linearGradient id="Nueva_muestra_de_degradado_1-39" data-name="Nueva muestra de degradado 1" x1="72.88" y1="12.05" x2="92.05" y2="12.05" xlink:href="#Nueva_muestra_de_degradado_1"/>
    <linearGradient id="Nueva_muestra_de_degradado_1-40" data-name="Nueva muestra de degradado 1" x1="71.74" y1="12.05" x2="73.88" y2="12.05" xlink:href="#Nueva_muestra_de_degradado_1"/>
    <linearGradient id="Nueva_muestra_de_degradado_1-41" data-name="Nueva muestra de degradado 1" x1="92.2" y1="12.05" x2="101.6" y2="12.05" xlink:href="#Nueva_muestra_de_degradado_1"/>
    <linearGradient id="Nueva_muestra_de_degradado_1-42" data-name="Nueva muestra de degradado 1" x1="91.05" y1="12.05" x2="93.2" y2="12.05" xlink:href="#Nueva_muestra_de_degradado_1"/>
    <linearGradient id="Nueva_muestra_de_degradado_1-43" data-name="Nueva muestra de degradado 1" x1="98.02" y1="11.81" x2="112.57" y2="11.81" xlink:href="#Nueva_muestra_de_degradado_1"/>
    <linearGradient id="Nueva_muestra_de_degradado_1-44" data-name="Nueva muestra de degradado 1" x1="97.11" y1="11.81" x2="101.48" y2="11.81" xlink:href="#Nueva_muestra_de_degradado_1"/>
    <linearGradient id="Nueva_muestra_de_degradado_1-45" data-name="Nueva muestra de degradado 1" x1="14.38" y1="83.36" x2="16.18" y2="83.36" xlink:href="#Nueva_muestra_de_degradado_1"/>
    <linearGradient id="Nueva_muestra_de_degradado_1-46" data-name="Nueva muestra de degradado 1" x1="14.95" y1="45.36" x2="16.18" y2="45.36" xlink:href="#Nueva_muestra_de_degradado_1"/>
    <linearGradient id="Nueva_muestra_de_degradado_1-47" data-name="Nueva muestra de degradado 1" x1="14.04" y1="45.91" x2="16.18" y2="45.91" xlink:href="#Nueva_muestra_de_degradado_1"/>
    <linearGradient id="Nueva_muestra_de_degradado_1-48" data-name="Nueva muestra de degradado 1" x1="14.04" y1="84" x2="15.38" y2="84" xlink:href="#Nueva_muestra_de_degradado_1"/>
    <linearGradient id="Nueva_muestra_de_degradado_1-49" data-name="Nueva muestra de degradado 1" x1="14.04" y1="79.25" x2="15.38" y2="79.25" xlink:href="#Nueva_muestra_de_degradado_1"/>
    <linearGradient id="Nueva_muestra_de_degradado_1-50" data-name="Nueva muestra de degradado 1" x1="13.81" y1="12.05" x2="16.18" y2="12.05" xlink:href="#Nueva_muestra_de_degradado_1"/>
    <linearGradient id="Nueva_muestra_de_degradado_1-51" data-name="Nueva muestra de degradado 1" x1="111.46" y1="16.61" x2="112.51" y2="16.61" xlink:href="#Nueva_muestra_de_degradado_1"/>
    <linearGradient id="Nueva_muestra_de_degradado_1-52" data-name="Nueva muestra de degradado 1" x1="110.37" y1="17.37" x2="111.94" y2="17.37" xlink:href="#Nueva_muestra_de_degradado_1"/>
    <linearGradient id="Nueva_muestra_de_degradado_1-53" data-name="Nueva muestra de degradado 1" x1="110.37" y1="54.66" x2="112.51" y2="54.66" xlink:href="#Nueva_muestra_de_degradado_1"/>
    <linearGradient id="Nueva_muestra_de_degradado_1-54" data-name="Nueva muestra de degradado 1" x1="110.94" y1="16.84" x2="112.46" y2="16.84" xlink:href="#Nueva_muestra_de_degradado_1"/>
    <linearGradient id="Nueva_muestra_de_degradado_1-55" data-name="Nueva muestra de degradado 1" x1="110.94" y1="21.27" x2="112.46" y2="21.27" xlink:href="#Nueva_muestra_de_degradado_1"/>
    <linearGradient id="Nueva_muestra_de_degradado_1-56" data-name="Nueva muestra de degradado 1" x1="110.37" y1="12.34" x2="111.94" y2="12.34" xlink:href="#Nueva_muestra_de_degradado_1"/>
    <linearGradient id="Nueva_muestra_de_degradado_1-57" data-name="Nueva muestra de degradado 1" x1="110.37" y1="12.1" x2="112.46" y2="12.1" xlink:href="#Nueva_muestra_de_degradado_1"/>
    <linearGradient id="Nueva_muestra_de_degradado_1-58" data-name="Nueva muestra de degradado 1" x1="15.18" y1="88.71" x2="29.18" y2="88.71" xlink:href="#Nueva_muestra_de_degradado_1"/>
    <linearGradient id="Nueva_muestra_de_degradado_1-59" data-name="Nueva muestra de degradado 1" x1="13.87" y1="89.54" x2="27.77" y2="89.54" xlink:href="#Nueva_muestra_de_degradado_1"/>
    <linearGradient id="Nueva_muestra_de_degradado_1-60" data-name="Nueva muestra de degradado 1" x1="24.92" y1="88.99" x2="34.12" y2="88.99" xlink:href="#Nueva_muestra_de_degradado_1"/>
    <linearGradient id="Nueva_muestra_de_degradado_1-61" data-name="Nueva muestra de degradado 1" y1="88.99" y2="88.99" xlink:href="#Nueva_muestra_de_degradado_1"/>
    <linearGradient id="Nueva_muestra_de_degradado_1-62" data-name="Nueva muestra de degradado 1" x1="33.12" y1="88.99" x2="35.26" y2="88.99" xlink:href="#Nueva_muestra_de_degradado_1"/>
    <linearGradient id="Nueva_muestra_de_degradado_1-63" data-name="Nueva muestra de degradado 1" x1="53.57" y1="88.99" x2="72.74" y2="88.99" xlink:href="#Nueva_muestra_de_degradado_1"/>
    <linearGradient id="Nueva_muestra_de_degradado_1-64" data-name="Nueva muestra de degradado 1" x1="52.43" y1="88.99" x2="54.57" y2="88.99" xlink:href="#Nueva_muestra_de_degradado_1"/>
    <linearGradient id="Nueva_muestra_de_degradado_1-65" data-name="Nueva muestra de degradado 1" x1="72.88" y1="88.99" x2="92.05" y2="88.99" xlink:href="#Nueva_muestra_de_degradado_1"/>
    <linearGradient id="Nueva_muestra_de_degradado_1-66" data-name="Nueva muestra de degradado 1" x1="71.74" y1="88.99" x2="73.88" y2="88.99" xlink:href="#Nueva_muestra_de_degradado_1"/>
    <linearGradient id="Nueva_muestra_de_degradado_1-67" data-name="Nueva muestra de degradado 1" x1="92.2" y1="88.99" x2="112.73" y2="88.99" xlink:href="#Nueva_muestra_de_degradado_1"/>
    <linearGradient id="Nueva_muestra_de_degradado_1-68" data-name="Nueva muestra de degradado 1" x1="91.05" y1="88.99" x2="93.2" y2="88.99" xlink:href="#Nueva_muestra_de_degradado_1"/>
    <linearGradient id="Nueva_muestra_de_degradado_1-69" data-name="Nueva muestra de degradado 1" x1="13.93" y1="89.27" x2="28.47" y2="89.27" xlink:href="#Nueva_muestra_de_degradado_1"/>
    <linearGradient id="Nueva_muestra_de_degradado_1-70" data-name="Nueva muestra de degradado 1" x1="13.84" y1="88.7" x2="15.04" y2="88.7" xlink:href="#Nueva_muestra_de_degradado_1"/>
    <linearGradient id="Nueva_muestra_de_degradado_1-71" data-name="Nueva muestra de degradado 1" x1="24.94" y1="89.27" x2="29.38" y2="89.27" xlink:href="#Nueva_muestra_de_degradado_1"/>
    <linearGradient id="Nueva_muestra_de_degradado_1-72" data-name="Nueva muestra de degradado 1" x1="14.38" y1="88.71" x2="16.18" y2="88.71" xlink:href="#Nueva_muestra_de_degradado_1"/>
    <linearGradient id="Nueva_muestra_de_degradado_1-73" data-name="Nueva muestra de degradado 1" x1="13.84" y1="88.97" x2="16.18" y2="88.97" xlink:href="#Nueva_muestra_de_degradado_1"/>
    <linearGradient id="Nueva_muestra_de_degradado_1-74" data-name="Nueva muestra de degradado 1" x1="110.37" y1="88.99" x2="112.51" y2="88.99" xlink:href="#Nueva_muestra_de_degradado_1"/>
    <linearGradient id="Nueva_muestra_de_degradado_1-75" data-name="Nueva muestra de degradado 1" x1="2.57" y1="5.3" x2="12.44" y2="5.3" xlink:href="#Nueva_muestra_de_degradado_1"/>
    <linearGradient id="Nueva_muestra_de_degradado_1-76" data-name="Nueva muestra de degradado 1" x1=".17" y1="6.59" x2="16.74" y2="6.59" xlink:href="#Nueva_muestra_de_degradado_1"/>
    <linearGradient id="Nueva_muestra_de_degradado_1-77" data-name="Nueva muestra de degradado 1" x1="1.31" y1="50.43" x2="14.84" y2="50.43" xlink:href="#Nueva_muestra_de_degradado_1"/>
    <linearGradient id="Nueva_muestra_de_degradado_1-78" data-name="Nueva muestra de degradado 1" x1="1.21" y1="94.48" x2="16.74" y2="94.48" xlink:href="#Nueva_muestra_de_degradado_1"/>
    <linearGradient id="Nueva_muestra_de_degradado_1-79" data-name="Nueva muestra de degradado 1" x1="1.31" y1="93.74" x2="14.84" y2="93.74" xlink:href="#Nueva_muestra_de_degradado_1"/>
    <linearGradient id="Nueva_muestra_de_degradado_1-80" data-name="Nueva muestra de degradado 1" x1=".17" y1="94.44" x2="16.79" y2="94.44" xlink:href="#Nueva_muestra_de_degradado_1"/>
    <linearGradient id="Nueva_muestra_de_degradado_1-81" data-name="Nueva muestra de degradado 1" x1="1.44" y1="100.54" x2="1.86" y2="100.54" xlink:href="#Nueva_muestra_de_degradado_1"/>
    <linearGradient id="Nueva_muestra_de_degradado_1-82" data-name="Nueva muestra de degradado 1" x1=".67" y1="100.54" x2="1.44" y2="100.54" xlink:href="#Nueva_muestra_de_degradado_1"/>
    <linearGradient id="Nueva_muestra_de_degradado_1-83" data-name="Nueva muestra de degradado 1" x1=".17" y1="50.43" x2="11.8" y2="50.43" xlink:href="#Nueva_muestra_de_degradado_1"/>
    <linearGradient id="Nueva_muestra_de_degradado_1-84" data-name="Nueva muestra de degradado 1" x1="1.44" y1="94.48" x2="125.5" y2="94.48" xlink:href="#Nueva_muestra_de_degradado_1"/>
    <linearGradient id="Nueva_muestra_de_degradado_1-85" data-name="Nueva muestra de degradado 1" x1="125.52" y1="100.38" x2="126.28" y2="100.38" gradientTransform="translate(129.93 -60.59) rotate(52.87)" xlink:href="#Nueva_muestra_de_degradado_1"/>
    <linearGradient id="Nueva_muestra_de_degradado_1-86" data-name="Nueva muestra de degradado 1" x1="110.94" y1="94.4" x2="124.32" y2="94.4" gradientTransform="translate(121.83 -56.37) rotate(52.85)" xlink:href="#Nueva_muestra_de_degradado_1"/>
    <linearGradient id="Nueva_muestra_de_degradado_1-87" data-name="Nueva muestra de degradado 1" x1="0" y1="99.89" x2="127" y2="99.89" xlink:href="#Nueva_muestra_de_degradado_1"/>
    <linearGradient id="Nueva_muestra_de_degradado_1-88" data-name="Nueva muestra de degradado 1" x1="125.78" y1="99.95" x2="126.78" y2="99.95" gradientTransform="translate(.21 -.26) rotate(.12)" xlink:href="#Nueva_muestra_de_degradado_1"/>
    <linearGradient id="Nueva_muestra_de_degradado_1-89" data-name="Nueva muestra de degradado 1" x1="109.76" y1="94.29" x2="126.78" y2="94.29" xlink:href="#Nueva_muestra_de_degradado_1"/>
    <linearGradient id="Nueva_muestra_de_degradado_1-90" data-name="Nueva muestra de degradado 1" x1="111.51" y1="50.53" x2="125.64" y2="50.53" xlink:href="#Nueva_muestra_de_degradado_1"/>
    <linearGradient id="Nueva_muestra_de_degradado_1-91" data-name="Nueva muestra de degradado 1" x1="111.51" y1="7.38" x2="125.43" y2="7.38" xlink:href="#Nueva_muestra_de_degradado_1"/>
    <linearGradient id="Nueva_muestra_de_degradado_1-92" data-name="Nueva muestra de degradado 1" x1="125.57" y1="1.01" x2="126.57" y2="1.01" xlink:href="#Nueva_muestra_de_degradado_1"/>
    <linearGradient id="Nueva_muestra_de_degradado_1-93" data-name="Nueva muestra de degradado 1" x1="109.79" y1="6.56" x2="125.53" y2="6.56" xlink:href="#Nueva_muestra_de_degradado_1"/>
    <linearGradient id="Nueva_muestra_de_degradado_1-94" data-name="Nueva muestra de degradado 1" x1="111.71" y1="50.52" x2="126.78" y2="50.52" xlink:href="#Nueva_muestra_de_degradado_1"/>
    <linearGradient id="Nueva_muestra_de_degradado_1-95" data-name="Nueva muestra de degradado 1" x1="109.67" y1="6.79" x2="126.57" y2="6.79" xlink:href="#Nueva_muestra_de_degradado_1"/>
    <linearGradient id="Nueva_muestra_de_degradado_1-96" data-name="Nueva muestra de degradado 1" x1="1.44" y1="6.56" x2="125.3" y2="6.56" xlink:href="#Nueva_muestra_de_degradado_1"/>
    <linearGradient id="Nueva_muestra_de_degradado_1-97" data-name="Nueva muestra de degradado 1" x1="0" y1="1.07" x2="126.76" y2="1.07" xlink:href="#Nueva_muestra_de_degradado_1"/>
    <linearGradient id="Nueva_muestra_de_degradado_1-98" data-name="Nueva muestra de degradado 1" x1="125.57" y1="3.15" x2="126.58" y2="3.15" xlink:href="#Nueva_muestra_de_degradado_1"/>
    <linearGradient id="Nueva_muestra_de_degradado_1-99" data-name="Nueva muestra de degradado 1" x1="26.34" y1="85.66" x2="35.07" y2="85.66" xlink:href="#Nueva_muestra_de_degradado_1"/>
    <linearGradient id="Nueva_muestra_de_degradado_1-100" data-name="Nueva muestra de degradado 1" y1="76.08" x2="54.38" y2="76.08" xlink:href="#Nueva_muestra_de_degradado_1"/>
    <linearGradient id="Nueva_muestra_de_degradado_1-101" data-name="Nueva muestra de degradado 1" x1="72.88" y1="45.01" x2="93.01" y2="45.01" xlink:href="#Nueva_muestra_de_degradado_1"/>
    <linearGradient id="Nueva_muestra_de_degradado_1-102" data-name="Nueva muestra de degradado 1" x1="92.2" y1="29.61" x2="111.37" y2="29.61" xlink:href="#Nueva_muestra_de_degradado_1"/>
  </defs>
  <g class="cls-103">
    <polygon class="cls-93" points="52.93 12.62 34.76 12.62 34.76 62.17 52.93 47.68 52.93 12.62"/>
    <polygon class="cls-86" points="72.24 32.29 72.24 12.62 54.07 12.62 54.07 46.77 72.24 32.29"/>
    <polygon class="cls-26" points="34.76 84.26 34.76 88.42 52.93 88.42 52.93 69.64 34.76 84.26"/>
    <polygon class="cls-17" points="98.74 12.62 92.7 17.44 92.7 17.44 73.38 32.84 73.38 32.84 54.07 48.23 54.07 48.23 34.76 63.63 34.76 63.63 15.68 78.84 15.68 88.42 27.76 88.42 34.76 82.79 34.76 82.79 54.07 67.26 54.07 67.26 73.38 51.72 73.38 51.72 92.7 36.19 92.7 36.19 110.87 21.57 110.87 12.62 98.74 12.62"/>
    <polygon class="cls-40" points="29.58 88.42 33.62 88.42 33.62 85.17 29.58 88.42"/>
    <polygon class="cls-59" points="33.62 63.08 33.62 12.62 15.68 12.62 15.68 77.38 33.62 63.08"/>
    <polygon class="cls-24" points="73.38 53.19 73.38 88.42 91.55 88.42 91.55 38.57 73.38 53.19"/>
    <polygon class="cls-10" points="54.07 68.72 54.07 88.42 72.24 88.42 72.24 54.1 54.07 68.72"/>
    <polygon class="cls-88" points="92.7 88.42 110.87 88.42 110.87 23.03 92.7 37.65 92.7 88.42"/>
    <polygon class="cls-83" points="91.55 16.89 91.55 12.62 73.38 12.62 73.38 31.38 91.55 16.89"/>
    <polygon class="cls-87" points="96.91 12.62 92.7 12.62 92.7 15.98 96.91 12.62"/>
    <polygon class="cls-56" points="14.54 79.02 14.54 12.33 14.31 12.14 14.31 79.94 14.34 79.91 14.34 79.18 14.54 79.02"/>
    <polygon class="cls-66" points="33.62 63.08 15.68 77.38 15.68 78.84 34.76 63.63 34.76 63.63 33.62 64.54 33.62 63.08"/>
    <polygon class="cls-3" points="52.93 47.68 34.76 62.17 34.76 63.63 54.07 48.23 54.07 48.23 52.93 49.14 52.93 47.68"/>
    <polygon class="cls-84" points="33.62 64.54 34.76 63.63 34.76 62.17 34.76 12.62 33.62 12.62 33.62 63.08 33.62 64.54"/>
    <polygon class="cls-102" points="33.62 85.17 33.62 88.42 34.76 88.42 34.76 84.26 34.76 82.79 33.62 83.71 33.62 85.17"/>
    <polygon class="cls-9" points="72.24 54.1 72.24 52.64 73.38 51.72 73.38 51.72 54.07 67.26 54.07 68.72 72.24 54.1"/>
    <polygon class="cls-54" points="52.93 69.64 52.93 88.42 54.07 88.42 54.07 68.72 54.07 67.26 52.93 68.17 52.93 69.64"/>
    <polygon class="cls-52" points="72.24 32.29 54.07 46.77 54.07 48.23 73.38 32.84 73.38 32.84 72.24 33.75 72.24 32.29"/>
    <polygon class="cls-91" points="54.07 12.62 52.93 12.62 52.93 47.68 52.93 49.14 54.07 48.23 54.07 46.77 54.07 12.62"/>
    <polygon class="cls-5" points="91.55 16.89 73.38 31.38 73.38 32.84 92.7 17.44 92.7 17.44 91.55 18.35 91.55 16.89"/>
    <polygon class="cls-63" points="73.38 12.62 72.24 12.62 72.24 32.29 72.24 33.75 73.38 32.84 73.38 31.38 73.38 12.62"/>
    <polygon class="cls-12" points="72.24 54.1 72.24 88.42 73.38 88.42 73.38 53.19 73.38 51.72 72.24 52.64 72.24 54.1"/>
    <polygon class="cls-71" points="91.55 38.57 91.55 88.42 92.7 88.42 92.7 37.65 92.7 36.19 91.55 37.1 91.55 38.57"/>
    <polygon class="cls-72" points="92.7 15.98 92.7 17.44 98.74 12.62 96.91 12.62 92.7 15.98"/>
    <polygon class="cls-65" points="92.7 12.62 91.55 12.62 91.55 16.89 91.55 18.35 92.7 17.44 92.7 15.98 92.7 12.62"/>
    <polygon class="cls-23" points="14.34 79.91 14.34 88.69 14.54 88.53 14.54 79.75 14.34 79.91"/>
    <polygon class="cls-46" points="14.54 79.02 14.34 79.18 14.34 79.91 14.54 79.75 14.54 79.02"/>
    <polygon class="cls-47" points="110.87 12.62 110.87 12.05 99.45 12.05 98.74 12.62 110.87 12.62"/>
    <polygon class="cls-58" points="100.05 11.58 111.12 11.58 111.24 11.48 100.17 11.48 100.05 11.58"/>
    <polygon class="cls-99" points="12.13 8.97 15.31 11.48 15.31 11.48 12.13 8.97"/>
    <polygon class="cls-76" points="14.31 12.14 11.49 9.92 14.31 12.14 14.31 12.14"/>
    <polygon class="cls-95" points="14.54 12.33 14.31 12.14 14.31 12.14 14.54 12.33"/>
    <polygon class="cls-34" points="15.68 12.62 33.62 12.62 33.62 11.48 15.31 11.48 15.31 11.48 15.68 11.78 15.68 12.62"/>
    <rect class="cls-31" x="34.76" y="11.48" width="18.17" height="1.14"/>
    <rect class="cls-78" x="33.62" y="11.48" width="1.14" height="1.14"/>
    <rect class="cls-70" x="54.07" y="11.48" width="18.17" height="1.14"/>
    <rect class="cls-69" x="52.93" y="11.48" width="1.14" height="1.14"/>
    <rect class="cls-1" x="73.38" y="11.48" width="18.17" height="1.14"/>
    <rect class="cls-81" x="72.24" y="11.48" width="1.14" height="1.14"/>
    <polygon class="cls-77" points="96.91 12.62 98.74 12.62 99.45 12.05 98.54 12.05 99.13 11.58 100.05 11.58 100.17 11.48 92.7 11.48 92.7 12.62 96.91 12.62"/>
    <rect class="cls-28" x="91.55" y="11.48" width="1.14" height="1.14"/>
    <polygon class="cls-4" points="99.45 12.05 110.87 12.05 110.87 11.77 111.12 11.58 100.05 11.58 99.45 12.05"/>
    <polygon class="cls-92" points="98.54 12.05 99.45 12.05 100.05 11.58 99.13 11.58 98.54 12.05"/>
    <polygon class="cls-50" points="15.68 78.84 14.88 79.48 14.88 88.42 15.68 88.42 15.68 78.84"/>
    <polygon class="cls-68" points="15.68 77.38 15.68 12.62 15.45 12.62 15.45 77.57 15.68 77.38"/>
    <polygon class="cls-49" points="14.88 78.75 14.88 79.48 15.68 78.84 15.68 77.38 15.45 77.57 15.45 12.62 14.91 12.62 14.54 12.33 14.54 79.02 14.88 78.75"/>
    <polygon class="cls-64" points="14.54 79.75 14.54 88.53 14.68 88.42 14.88 88.42 14.88 79.48 14.54 79.75"/>
    <polygon class="cls-42" points="14.54 79.02 14.54 79.75 14.88 79.48 14.88 78.75 14.54 79.02"/>
    <polygon class="cls-20" points="14.91 12.62 15.45 12.62 15.68 12.62 15.68 11.78 15.31 11.48 14.31 11.48 14.31 12.14 14.54 12.33 14.91 12.62"/>
    <polygon class="cls-39" points="112.01 20.65 112.01 12.51 111.96 12.55 111.96 20.69 112.01 20.65"/>
    <polygon class="cls-30" points="110.87 12.62 110.87 21.57 111.44 21.11 111.44 12.62 110.87 12.62"/>
    <polygon class="cls-82" points="112.01 20.65 111.96 20.69 111.96 21.42 111.44 21.84 111.44 21.11 110.87 21.57 110.87 23.03 110.87 88.42 111.63 88.42 112.01 88.71 112.01 88.71 112.01 20.65"/>
    <polygon class="cls-80" points="111.44 12.62 111.44 21.11 111.96 20.69 111.96 12.55 111.87 12.62 111.44 12.62"/>
    <polygon class="cls-14" points="111.44 21.84 111.96 21.42 111.96 20.69 111.44 21.11 111.44 21.84"/>
    <rect class="cls-29" x="110.87" y="12.05" width=".57" height=".57"/>
    <polygon class="cls-11" points="110.87 12.05 111.44 12.05 111.44 12.62 111.87 12.62 111.96 12.55 111.96 11.58 111.12 11.58 110.87 11.77 110.87 12.05"/>
    <polygon class="cls-75" points="15.68 88.42 15.68 88.99 27.05 88.99 27.76 88.42 15.68 88.42"/>
    <polygon class="cls-100" points="26.36 89.55 15.36 89.52 15.31 89.56 26.34 89.56 26.36 89.55"/>
    <polygon class="cls-38" points="29.58 88.42 27.76 88.42 27.05 88.99 27.96 88.99 27.26 89.55 26.36 89.55 26.34 89.56 33.62 89.56 33.62 88.42 29.58 88.42"/>
    <rect class="cls-62" x="34.76" y="88.42" width="18.17" height="1.14"/>
    <rect class="cls-97" x="33.62" y="88.42" width="1.14" height="1.14"/>
    <rect class="cls-19" x="54.07" y="88.42" width="18.17" height="1.14"/>
    <rect class="cls-8" x="52.93" y="88.42" width="1.14" height="1.14"/>
    <rect class="cls-57" x="73.38" y="88.42" width="18.17" height="1.14"/>
    <rect class="cls-73" x="72.24" y="88.42" width="1.14" height="1.14"/>
    <polygon class="cls-61" points="92.7 89.56 111.25 89.56 110.87 89.27 110.87 88.42 92.7 88.42 92.7 89.56"/>
    <rect class="cls-37" x="91.55" y="88.42" width="1.14" height="1.14"/>
    <polygon class="cls-60" points="27.05 88.99 15.68 88.99 15.68 89.27 15.36 89.52 26.36 89.55 27.05 88.99"/>
    <polygon class="cls-55" points="14.54 88.53 14.34 88.69 14.34 88.87 14.54 88.71 14.54 88.53"/>
    <polygon class="cls-67" points="27.96 88.99 27.05 88.99 26.36 89.55 27.26 89.55 27.96 88.99"/>
    <rect class="cls-2" x="14.88" y="88.42" width=".8" height=".57"/>
    <polygon class="cls-7" points="15.68 88.99 14.88 88.99 14.88 88.42 14.68 88.42 14.54 88.53 14.54 88.71 14.34 88.87 14.34 89.52 15.36 89.52 15.68 89.27 15.68 88.99"/>
    <polygon class="cls-94" points="110.87 88.42 110.87 89.27 111.25 89.56 111.25 89.56 112.01 89.56 112.01 88.71 111.63 88.42 110.87 88.42"/>
    <polygon class="cls-101" points="2.88 1.64 12.13 8.97 2.88 1.64 2.88 1.64"/>
    <polygon class="cls-45" points="2.88 1.64 1.44 .5 .67 .5 .67 1.35 11.49 9.92 14.31 12.14 14.31 11.48 15.31 11.48 12.13 8.97 2.88 1.64 2.88 1.64"/>
    <g>
      <polygon class="cls-15" points="1.81 98.61 14.34 88.69 14.34 79.91 14.31 79.94 14.31 12.14 11.49 9.92 1.81 2.25 1.81 98.61"/>
      <polygon class="cls-48" points="2.65 99.4 2.88 99.4 15.31 89.56 15.07 89.56 2.65 99.4"/>
      <polygon class="cls-13" points="1.81 98.79 14.34 88.87 14.34 88.69 1.81 98.61 1.81 98.79"/>
      <polygon class="cls-43" points="2.88 99.4 2.65 99.4 15.07 89.56 15.31 89.56 15.36 89.52 14.34 89.52 14.34 88.87 1.81 98.79 1.81 98.61 .67 99.51 .67 100.54 1.44 100.54 2.88 99.4"/>
      <polygon class="cls-18" points="1.44 100.54 1.86 100.54 1.44 100.54 1.44 100.54"/>
      <rect class="cls-32" x=".67" y="100.54" width=".77" height="0"/>
      <polygon class="cls-25" points="1.81 2.25 11.49 9.92 .67 1.35 .67 2.25 .67 97.43 .67 99.51 1.81 98.61 1.81 2.25"/>
      <polygon class="cls-27" points="124.01 99.24 111.25 89.56 92.7 89.56 91.55 89.56 73.38 89.56 72.24 89.56 54.07 89.56 52.93 89.56 34.76 89.56 33.62 89.56 26.34 89.56 15.31 89.56 2.88 99.4 124.01 99.24"/>
      <rect class="cls-74" x="125.52" y="100.38" width=".76" height="0" transform="translate(-30.12 140.16) rotate(-52.87)"/>
      <rect class="cls-98" x="117.63" y="86.39" width="0" height="16.02" transform="translate(-28.65 131.14) rotate(-52.85)"/>
      <polygon class="cls-6" points="2.88 99.4 1.44 100.54 1.86 100.54 125.52 100.38 124.01 99.24 2.88 99.4"/>
      <rect class="cls-16" x="126.28" y="99.52" width="0" height=".85" transform="translate(-.21 .26) rotate(-.12)"/>
      <polygon class="cls-89" points="126.28 99.52 112.01 88.71 112.01 89.56 111.25 89.56 124.01 99.24 124.01 99.24 125.52 100.38 126.28 100.38 126.28 99.52"/>
      <polygon class="cls-35" points="124.93 2.42 112.01 12.51 112.01 20.65 112.01 88.71 125.14 98.66 124.93 2.42"/>
      <polygon class="cls-79" points="124.93 2.24 112.01 12.33 112.01 12.51 124.93 2.42 124.93 2.24"/>
      <polygon class="cls-41" points="126.07 .5 126.07 .5 126.07 1.53 126.07 .5"/>
      <polygon class="cls-22" points="124.08 1.64 123.84 1.64 111.24 11.48 111.47 11.48 124.08 1.64"/>
      <polygon class="cls-21" points="126.08 4.26 126.07 4.26 126.07 1.53 124.93 2.42 125.14 98.66 112.01 88.71 112.01 88.71 126.28 99.52 126.08 4.26"/>
      <polygon class="cls-36" points="124.93 2.24 124.93 2.42 126.07 1.53 126.07 .5 125.31 .5 123.84 1.64 124.08 1.64 111.47 11.48 111.24 11.48 111.12 11.58 111.96 11.58 111.96 12.55 112.01 12.51 112.01 12.33 124.93 2.24"/>
      <polygon class="cls-33" points="2.88 1.64 12.13 8.97 15.31 11.48 33.62 11.48 34.76 11.48 52.93 11.48 54.07 11.48 72.24 11.48 73.38 11.48 91.55 11.48 92.7 11.48 100.17 11.48 111.24 11.48 123.84 1.64 2.88 1.64"/>
      <polygon class="cls-51" points="125.31 .5 123.54 .5 1.44 .5 2.88 1.64 123.84 1.64 125.31 .5"/>
      <polygon class="cls-96" points="126.08 4.26 126.07 1.53 126.07 4.26 126.08 4.26"/>
    </g>
    <polygon class="cls-90" points="33.62 85.17 33.62 83.71 34.76 82.79 34.76 82.79 27.76 88.42 29.58 88.42 33.62 85.17"/>
    <polygon class="cls-85" points="52.93 69.64 52.93 68.17 54.07 67.26 54.07 67.26 34.76 82.79 34.76 84.26 52.93 69.64"/>
    <polygon class="cls-44" points="91.55 38.57 91.55 37.1 92.7 36.19 92.7 36.19 73.38 51.72 73.38 53.19 91.55 38.57"/>
    <polygon class="cls-53" points="92.7 37.65 110.87 23.03 110.87 21.57 92.7 36.19 92.7 37.65"/>
  </g>
</svg>