<?xml version="1.0" encoding="UTF-8"?>
<svg id="Capa_1" xmlns="http://www.w3.org/2000/svg" viewBox="0 0 180 180">
  <defs>
    <style>
      .cls-1 {
        fill: none;
        stroke: #cbd5e1;
        stroke-miterlimit: 10;
        stroke-width: 15px;
      }
    </style>
  </defs>
  <path class="cls-1" d="M45.76,112.72l9.46,16.37c1.31,2.26,4.2,3.03,6.46,1.73l6.61-3.81c2.74,2.16,5.78,3.94,8.97,5.26v7.56c0,2.61,2.12,4.73,4.73,4.73h18.93c2.61,0,4.73-2.12,4.73-4.73v-7.56c3.21-1.34,6.23-3.11,8.97-5.26l6.61,3.81c2.26,1.3,5.16.52,6.46-1.73l9.46-16.37c1.3-2.26.53-5.15-1.73-6.46l-6.49-3.75c.51-3.49.5-7.03,0-10.52l6.49-3.75c2.25-1.3,3.03-4.21,1.73-6.46l-9.46-16.37c-1.31-2.26-4.2-3.03-6.46-1.73l-6.61,3.81c-2.73-2.16-5.75-3.93-8.96-5.26v-7.56c0-2.61-2.12-4.73-4.73-4.73h-18.93c-2.61,0-4.73,2.12-4.73,4.73v7.56c-3.21,1.34-6.23,3.11-8.97,5.26l-6.6-3.81c-2.26-1.31-5.15-.54-6.46,1.72,0,0,0,0,0,0l-9.46,16.37c-1.3,2.26-.53,5.15,1.73,6.46l6.49,3.75c-.51,3.49-.51,7.03,0,10.52l-6.49,3.75c-2.25,1.3-3.03,4.21-1.73,6.46ZM91.45,78.31c10.44,0,18.93,8.49,18.93,18.93s-8.49,18.93-18.93,18.93-18.93-8.49-18.93-18.93,8.49-18.93,18.93-18.93Z"/>
</svg>