<?xml version="1.0" encoding="UTF-8"?>
<svg id="content" xmlns="http://www.w3.org/2000/svg" xmlns:xlink="http://www.w3.org/1999/xlink" viewBox="0 0 101.73 112.55">
  <defs>
    <style>
      .cls-1 {
        fill: url(#Nueva_muestra_de_degradado_1-4);
      }

      .cls-1, .cls-2, .cls-3, .cls-4, .cls-5 {
        stroke-width: 0px;
      }

      .cls-2 {
        fill: url(#Nueva_muestra_de_degradado_1-2);
      }

      .cls-3 {
        fill: url(#Nueva_muestra_de_degradado_1-3);
      }

      .cls-4 {
        fill: url(#Nueva_muestra_de_degradado_1-5);
      }

      .cls-5 {
        fill: url(#Nueva_muestra_de_degradado_1);
      }
    </style>
    <linearGradient id="Nueva_muestra_de_degradado_1" data-name="Nueva muestra de degradado 1" x1="0" y1="91.15" x2="16.33" y2="91.15" gradientUnits="userSpaceOnUse">
      <stop offset="0" stop-color="#3a006a"/>
      <stop offset=".29" stop-color="#402381"/>
      <stop offset=".56" stop-color="#453d92"/>
      <stop offset=".81" stop-color="#484d9c"/>
      <stop offset="1" stop-color="#4a53a0"/>
    </linearGradient>
    <linearGradient id="Nueva_muestra_de_degradado_1-2" data-name="Nueva muestra de degradado 1" x1="4.5" y1="103.71" x2="11.83" y2="103.71" xlink:href="#Nueva_muestra_de_degradado_1"/>
    <linearGradient id="Nueva_muestra_de_degradado_1-3" data-name="Nueva muestra de degradado 1" x1="13.98" y1="93.91" x2="101.73" y2="93.91" xlink:href="#Nueva_muestra_de_degradado_1"/>
    <linearGradient id="Nueva_muestra_de_degradado_1-4" data-name="Nueva muestra de degradado 1" x1="20.62" y1="39.67" x2="101.22" y2="39.67" xlink:href="#Nueva_muestra_de_degradado_1"/>
    <linearGradient id="Nueva_muestra_de_degradado_1-5" data-name="Nueva muestra de degradado 1" x1="36.8" y1="39.67" x2="60.92" y2="39.67" xlink:href="#Nueva_muestra_de_degradado_1"/>
  </defs>
  <g>
    <path class="cls-5" d="m16.33,110.52H0v-38.74h16.33v38.74Zm-13.98-2.34h11.64v-34.05H2.34v34.05Z"/>
    <path class="cls-2" d="m8.16,107.38c-2.02,0-3.67-1.65-3.67-3.67s1.64-3.66,3.67-3.66,3.67,1.64,3.67,3.66-1.65,3.67-3.67,3.67Zm0-4.99c-.73,0-1.32.59-1.32,1.32s.59,1.32,1.32,1.32,1.32-.59,1.32-1.32-.59-1.32-1.32-1.32Z"/>
    <path class="cls-3" d="m57.91,112.55l-43.93-10.41v-21.9l22-4.98,32.67,9.36c.56.13,5.3,1.3,6.45,4.89l23.31-9.64.52.34c.11.07,2.59,1.73,2.78,4.52.13,1.94-.85,3.84-2.93,5.66l-.1.09-40.79,22.09Zm-41.58-12.26l41.25,9.77,39.77-21.54c1.42-1.27,2.11-2.49,2.04-3.63-.07-1.07-.79-1.91-1.28-2.36l-22.86,9.45c-.21,1.02-.78,2.84-2.32,3.95-1.29.93-2.92,1.15-4.85.66l-17.99-4.3.54-2.28,18.01,4.3c1.23.32,2.21.22,2.91-.28,1.19-.85,1.44-2.64,1.47-2.93-.05-3.11-4.85-4.19-4.89-4.2l-.08-.02-32.13-9.2-19.59,4.44v18.18Z"/>
  </g>
  <g>
    <path class="cls-1" d="m68.52,79.33h-15.2v-6.49c-2.29-.53-4.51-1.3-6.64-2.29l-3.98,5.16-12.03-9.29,4.05-5.25c-1.45-1.8-2.71-3.74-3.77-5.8l-6.48,1.7-3.85-14.71,6.65-1.74c0-.19,0-.37,0-.55,0-1.51.11-3.05.32-4.58l-6.52-2.4,5.26-14.26,6.67,2.45c.72-1.07,1.51-2.1,2.35-3.08l-4.29-5.73,12.16-9.11,4.35,5.81c1.85-.8,3.77-1.43,5.74-1.89V0h15.2v7.29c2.13.49,4.21,1.19,6.19,2.09l4.43-5.75,12.04,9.28-4.37,5.66c1.42,1.71,2.67,3.54,3.72,5.49l6.84-1.79,3.85,14.7-6.68,1.75c.02.46.03.91.03,1.34,0,1.27-.07,2.55-.22,3.81l6.41,2.36-5.25,14.26-6.26-2.3c-.75,1.17-1.57,2.3-2.45,3.36l3.97,5.3-12.17,9.11-3.9-5.21c-2,.9-4.07,1.6-6.19,2.09v6.48Zm-11.23-3.97h7.26v-5.8l1.64-.29c2.86-.51,5.63-1.44,8.24-2.78l1.49-.76,3.5,4.68,5.81-4.35-3.54-4.73,1.11-1.21c1.47-1.61,2.78-3.4,3.9-5.34l.83-1.45,5.64,2.07,2.51-6.81-5.73-2.11.27-1.62c.26-1.58.39-3.19.39-4.8,0-.83-.04-1.7-.13-2.68l-.15-1.67,6.04-1.58-1.84-7.02-6.13,1.6-.71-1.47c-1.27-2.65-2.93-5.08-4.92-7.25l-1.13-1.23,3.96-5.14-5.75-4.43-4,5.18-1.47-.75c-2.58-1.32-5.34-2.25-8.22-2.77l-1.63-.29V3.97h-7.26v6.6l-1.63.29c-2.73.49-5.36,1.36-7.83,2.57l-1.48.73-3.92-5.24-5.81,4.35,3.89,5.2-1.15,1.21c-1.46,1.54-2.76,3.24-3.85,5.04l-.85,1.4-5.98-2.2-2.51,6.81,5.9,2.17-.31,1.65c-.35,1.84-.52,3.69-.52,5.51,0,.57.02,1.18.07,1.94l.1,1.63-5.94,1.56,1.84,7.03,5.84-1.53.69,1.53c1.25,2.77,2.9,5.32,4.91,7.58l1.09,1.23-3.61,4.68,5.75,4.44,3.57-4.63,1.48.78c2.7,1.43,5.61,2.44,8.62,2.98l1.63.29v5.79Zm3.63-18.07c-9.72,0-17.62-7.91-17.62-17.62s7.91-17.63,17.62-17.63,17.63,7.91,17.63,17.63-7.91,17.62-17.63,17.62Zm0-31.28c-7.53,0-13.65,6.13-13.65,13.66s6.13,13.65,13.65,13.65,13.66-6.13,13.66-13.65-6.13-13.66-13.66-13.66Z"/>
    <path class="cls-4" d="m60.92,63.78c-13.3,0-24.11-10.82-24.11-24.11s10.82-24.11,24.11-24.11v3.97c-11.11,0-20.15,9.04-20.15,20.15s9.04,20.14,20.15,20.14v3.97Z"/>
  </g>
</svg>