<?xml version="1.0" encoding="UTF-8"?>
<svg id="content" xmlns="http://www.w3.org/2000/svg" xmlns:xlink="http://www.w3.org/1999/xlink" viewBox="0 0 111.49 79.93">
  <defs>
    <style>
      .cls-1 {
        fill: url(#Nueva_muestra_de_degradado_1-4);
      }

      .cls-1, .cls-2, .cls-3, .cls-4, .cls-5, .cls-6, .cls-7 {
        stroke-width: 0px;
      }

      .cls-2 {
        fill: url(#Nueva_muestra_de_degradado_1-2);
      }

      .cls-3 {
        fill: url(#Nueva_muestra_de_degradado_1-3);
      }

      .cls-4 {
        fill: url(#Nueva_muestra_de_degradado_1-5);
      }

      .cls-5 {
        fill: url(#Nueva_muestra_de_degradado_1);
      }

      .cls-6 {
        fill: url(#Nueva_muestra_de_degradado_1-7);
      }

      .cls-7 {
        fill: url(#Nueva_muestra_de_degradado_1-6);
      }
    </style>
    <linearGradient id="Nueva_muestra_de_degradado_1" data-name="Nueva muestra de degradado 1" x1="0" y1="50.81" x2="111.49" y2="50.81" gradientUnits="userSpaceOnUse">
      <stop offset="0" stop-color="#3a006a"/>
      <stop offset=".29" stop-color="#402381"/>
      <stop offset=".56" stop-color="#453d92"/>
      <stop offset=".81" stop-color="#484d9c"/>
      <stop offset="1" stop-color="#4a53a0"/>
    </linearGradient>
    <linearGradient id="Nueva_muestra_de_degradado_1-2" data-name="Nueva muestra de degradado 1" x1="90.44" y1="23.9" x2="104.74" y2="23.9" xlink:href="#Nueva_muestra_de_degradado_1"/>
    <linearGradient id="Nueva_muestra_de_degradado_1-3" data-name="Nueva muestra de degradado 1" x1="6.47" y1="23.91" x2="20.77" y2="23.91" xlink:href="#Nueva_muestra_de_degradado_1"/>
    <linearGradient id="Nueva_muestra_de_degradado_1-4" data-name="Nueva muestra de degradado 1" x1="52.64" y1="7.43" x2="58.6" y2="7.43" xlink:href="#Nueva_muestra_de_degradado_1"/>
    <linearGradient id="Nueva_muestra_de_degradado_1-5" data-name="Nueva muestra de degradado 1" x1="27.93" y1="11.94" x2="39.71" y2="11.94" xlink:href="#Nueva_muestra_de_degradado_1"/>
    <linearGradient id="Nueva_muestra_de_degradado_1-6" data-name="Nueva muestra de degradado 1" x1="71.46" y1="11.97" x2="83.24" y2="11.97" xlink:href="#Nueva_muestra_de_degradado_1"/>
    <linearGradient id="Nueva_muestra_de_degradado_1-7" data-name="Nueva muestra de degradado 1" x1="48.48" y1="50.8" x2="62.73" y2="50.8" xlink:href="#Nueva_muestra_de_degradado_1"/>
  </defs>
  <g>
    <path class="cls-5" d="m55.57,36.26c-8.35.01-15.15,6.55-15.15,14.56,0,8.02,6.8,14.56,15.16,14.57h.02c4.05,0,7.86-1.53,10.74-4.3,2.88-2.77,4.46-6.45,4.44-10.34-.03-8-6.85-14.5-15.2-14.5h-.02Zm.04,33.56h-.03c-10.89-.02-19.76-8.54-19.76-19,0-10.46,8.86-18.98,19.75-18.99h.03c10.88,0,19.76,8.48,19.8,18.91.02,5.08-2.03,9.87-5.79,13.48-3.75,3.61-8.72,5.6-14,5.6M4.61,49.71s0,0,0,0c0,0,0,0,0,0m.96,1.09c8.74,9.31,18.84,16.28,30.03,20.71,11.56,4.58,23.18,5.21,34.53,1.86,8.84-2.61,17.14-6.98,25.39-13.36,4.11-3.18,7.36-6.13,10.11-9.18-10.3-10.9-21.64-18.21-34.62-22.3-9.09-2.87-18.35-3.17-27.53-.9-8.77,2.17-17.09,6.17-25.45,12.21-4.97,3.59-9.06,7.19-12.47,10.95m50.08,29.13c-7.25,0-14.54-1.44-21.8-4.32-12.05-4.78-22.89-12.31-32.21-22.4-.24-.27-.47-.54-.69-.82-.25-.32-.36-.62-.42-.78l-.52-1.22.85-1.07c3.86-4.53,8.58-8.78,14.42-13.01,8.85-6.4,17.7-10.64,27.07-12.96,10.05-2.49,20.18-2.16,30.12.97,14.1,4.45,26.34,12.44,37.42,24.43.23.25.39.48.52.67l1.1,1.54-1.08,1.29c-3.2,3.8-7.01,7.36-11.99,11.21-8.71,6.74-17.52,11.37-26.93,14.15-5.24,1.55-10.53,2.32-15.83,2.32"/>
    <path class="cls-2" d="m95.41,31.69c-1.75-1.27-3.32-2.42-4.97-3.61,3.14-4.02,6.19-7.93,9.33-11.95,1.7,1.23,3.3,2.4,4.97,3.61-3.14,4.02-6.19,7.93-9.33,11.96"/>
    <path class="cls-3" d="m6.47,19.73c1.65-1.2,3.23-2.34,4.97-3.61,3.12,3.99,6.19,7.92,9.34,11.95-1.66,1.21-3.24,2.35-4.97,3.61-3.12-3.99-6.19-7.92-9.33-11.95"/>
  </g>
  <rect class="cls-1" x="52.64" width="5.96" height="14.85"/>
  <g>
    <path class="cls-4" d="m34.15,19.25c-2.09-4.01-4.12-7.89-6.22-11.93,1.83-.89,3.62-1.76,5.56-2.7,2.09,4.02,4.13,7.95,6.22,11.96-1.88.9-3.64,1.75-5.56,2.67"/>
    <path class="cls-7" d="m77.02,19.28c-1.94-.93-3.7-1.78-5.57-2.67,2.09-4.02,4.14-7.95,6.22-11.95,1.93.93,3.69,1.78,5.56,2.68-2.07,3.97-4.09,7.86-6.21,11.95"/>
    <path class="cls-6" d="m48.48,50.73c.03-3.76,3.24-6.82,7.12-6.82,3.99,0,7.18,3.15,7.12,7.04-.05,3.75-3.27,6.78-7.18,6.75-3.96-.03-7.1-3.13-7.07-6.98"/>
  </g>
</svg>